<svg xmlns="http://www.w3.org/2000/svg" viewBox="0 0 163.34 25.73"><defs><style>.prefix__cls-2{fill:#d9d9d9}.prefix__cls-3{fill:#403f3e}</style></defs><g style="isolation:isolate"><g id="prefix__Layer_2"><g id="prefix__Layer_1-2"><path class="prefix__cls-2" d="M104.35 4.3h4.28v8.57h-4.28zM104.35 17.14h4.28v8.59h-4.28zM108.63 12.87h8.54v4.27h-8.54zM95.81 12.87h8.54v4.27h-8.54z"/><path style="mix-blend-mode:screen" fill="#716f6a" d="M104.35 12.87h4.28v4.27h-4.28z"/><path fill="#b9b9b9" d="M104.35 12.87h4.28v4.27h-4.28z"/><path class="prefix__cls-3" d="M117.17 0v12.89h17.07v4.25h-17.07v4.29h21.35V8.59h-17.08V4.3h37.62v4.29h-12.79v4.3h12.79v4.25h-17.07v4.29h21.35V0h-46.17zM21.35 21.43H0V0h21.35v4.3H4.28v12.84h17.07v4.29zM46.17 21.43H24.82V0h4.27v17.14h12.8V0h4.28v21.43zM70.99 4.3H53.92v17.13h-4.28V0h21.35v4.3zM78.74 12.89V4.3h12.8v4.29h-9.33v4.3h13.6V0H74.46v21.43h21.35v-4.29H78.74v-4.25z"/></g></g></g></svg>
