<svg xmlns="http://www.w3.org/2000/svg" viewBox="0 0 179 34"><path fill="#0ECAD4" d="M10 29.6h9.5v-7.2l-2.3-2.3h-4.9L10 22.4v7.2zm12.3-19.5L20 12.4v5l2.3 2.3h7.2v-9.5h-7.2v-.1zM19.5 0H10v7.2l2.3 2.3h4.9l2.3-2.3V0zm10.1 29.6v-7.2l-2.3-2.3h-7.2v9.5h9.5zM2.3 0L0 2.3v7.2h9.5V0H2.3zm17.8 0v7.2l2.3 2.3h7.2V0h-9.5zm-5.3 16.2c-.7 0-1.3-.6-1.3-1.3 0-.7.6-1.3 1.3-1.3s1.3.6 1.3 1.3c0 .7-.6 1.3-1.3 1.3zm-5.3-6.1H0v9.5h7.2l2.3-2.3v-7.2zm0 12.3l-2.3-2.3H0v9.5h7.2l2.3-2.3v-4.9z"/><path fill="#FFF" d="M49.9 22.4c-.2 0-.2-.1-.3-.2l-2.4-8.4h-.1l-2.4 8.4c-.1.2-.1.2-.3.2h-2.8c-.2 0-.2-.1-.3-.2L37.2 7.6c0-.1 0-.2.2-.2h3.7c.1 0 .3.1.3.2l1.9 8.8h.1l2.3-8.8c.1-.2.1-.2.3-.2h2.3c.2 0 .2.1.3.2l2.4 8.8h.1L53 7.6c0-.1.1-.2.3-.2H57c.1 0 .2.1.2.2l-4.1 14.6c-.1.2-.1.2-.3.2h-2.9zm10.1 0c-.1 0-.2-.1-.2-.2V7.6c0-.1.1-.2.2-.2h6c3.7 0 5.6 2.1 5.6 5s-1.9 5-5.6 5h-2.2c-.1 0-.1.1-.1.1v4.6c0 .1-.1.2-.2.2l-3.5.1zm7.7-10c0-1-.7-1.7-1.9-1.7h-2c-.1 0-.1.1-.1.1v3.1c0 .1.1.1.1.1h2c.9.1 1.8-.5 1.9-1.4v-.2zm9.1 6.3a12 12 0 01-.4-3.8c0-1.3.1-2.5.4-3.8.9-2.8 3.9-4.2 6.6-3.3 1.6.5 2.8 1.8 3.3 3.3.3 1.1.5 2.3.4 3.5 0 .2-.1.3-.3.3h-9.5c-.1 0-.2.1-.2.2 0 1.1.1 2.2.3 3.2.5 1.9 2.3 3.2 4.3 3.1 1.7.1 3.3-.7 4.3-2 .1-.1.2-.2.3-.1 0 0 .1 0 .1.1l.2.2c.1.1.2.2.1.3 0 0 0 .1-.1.1-1.1 1.5-3 2.4-4.9 2.4-2.1.1-4.3-1.4-4.9-3.7zm9.4-4.5c.1 0 .2 0 .2-.1 0-.8-.1-1.7-.3-2.5a4.1 4.1 0 00-4.2-3.1c-2-.1-3.7 1.2-4.2 3.1-.3.8-.4 1.6-.3 2.5 0 .1 0 .2.1.2h8.7v-.1zm14.4 7.9c-.2 0-.3-.1-.3-.3v-8.5c0-3.4-1.4-4.8-4.1-4.8-2.3-.1-4.3 1.7-4.4 4v9.4c0 .2-.1.3-.3.3h-.3c-.2 0-.3-.1-.3-.3V8.3c0-.2.1-.3.3-.3h.3c.2 0 .3.1.3.3v2h.1c.8-1.7 2.5-2.7 4.4-2.6 3.2 0 5 1.8 5 5.5v8.7c0 .2-.1.3-.3.3l-.4-.1zm4.9 3.6c-.1-.2-.1-.3.1-.4l.2-.2c.2-.1.3-.1.4.1.9 1.1 2.3 1.8 3.8 1.7 2.7 0 4.4-1.3 4.4-4.8v-2.4h-.1c-.7 1.8-2.5 2.9-4.4 2.7-2.2.1-4.1-1.3-4.7-3.4-.4-1.3-.5-2.7-.5-4s.1-2.7.5-4c.6-2.1 2.5-3.5 4.7-3.4 1.9-.2 3.7.9 4.4 2.7h.1v-2c0-.2.1-.3.3-.3h.3c.2 0 .3.1.3.3v13.9c0 3.9-2.1 5.6-5.3 5.6-1.8.1-3.5-.7-4.5-2.1zm8.4-7c.3-1.2.5-2.5.4-3.7.1-1.3-.1-2.5-.4-3.7-.5-1.8-2.1-3-3.9-2.8-1.8-.1-3.4 1-3.9 2.8-.3 1.2-.5 2.5-.5 3.7 0 1.3.1 2.5.5 3.7.5 1.7 2.1 2.9 3.9 2.8 1.8.2 3.5-1 3.9-2.8zm6.2-15.1c-.2 0-.3-.1-.3-.3V2.1c0-.2.1-.3.3-.3h.7c.2 0 .3.1.3.3v1.2c0 .2-.1.3-.3.3h-.7zm.2 18.5c-.2 0-.3-.1-.3-.3V8.3c0-.2.1-.3.3-.3h.3c.2 0 .3.1.3.3v13.5c0 .2-.1.3-.3.3h-.3zm15 0c-.2 0-.3-.1-.3-.3v-8.5c0-3.4-1.4-4.8-4.1-4.8-2.3-.1-4.3 1.7-4.4 4v9.4c0 .2-.1.3-.3.3h-.2c-.2 0-.3-.1-.3-.3V8.3c0-.2.1-.3.3-.3h.3c.2 0 .3.1.3.3v2h.1c.8-1.7 2.5-2.7 4.3-2.6 3.2 0 5 1.8 5 5.5v8.7c0 .2-.1.3-.3.3l-.4-.1zm4.6-3.4a12 12 0 01-.4-3.8c0-1.3.1-2.5.4-3.8.9-2.8 3.9-4.2 6.6-3.3 1.6.5 2.8 1.8 3.3 3.3.3 1.1.5 2.3.4 3.5 0 .2-.1.3-.3.3h-9.5c-.1 0-.2.1-.2.2 0 1.1.1 2.2.3 3.2.5 1.9 2.3 3.2 4.3 3.1 1.7.1 3.3-.7 4.3-2 .1-.1.2-.2.3-.1 0 0 .1 0 .1.1l.2.2c.1.1.2.2.1.3 0 0 0 .1-.1.1-1.1 1.5-3 2.4-4.9 2.4-2.1.2-4.3-1.4-4.9-3.7zm9.4-4.5c.1 0 .2 0 .2-.1 0-.8-.1-1.7-.3-2.5a4.1 4.1 0 00-4.2-3.1c-2-.1-3.7 1.2-4.2 3.1-.3.8-.4 1.6-.3 2.5 0 .1 0 .2.1.2h8.7v-.1zm2.7-4.8c0-1 .8-1.7 1.7-1.7 1 0 1.7.8 1.7 1.7s-.8 1.7-1.7 1.7c-.9 0-1.6-.7-1.7-1.7zm3.2 0c0-.8-.6-1.4-1.5-1.4-.8 0-1.4.6-1.4 1.5 0 .8.6 1.4 1.4 1.4.8 0 1.4-.6 1.5-1.3v-.2zm-2 1c-.1 0-.1 0 0 0l-.1-1.9c0-.1 0-.1.1-.1h.7c.3 0 .6.2.6.5V9c0 .3-.2.5-.4.5l.4.8c.1.1 0 .1-.1.1h-.2c-.1 0-.1-.1-.1-.1l-.4-.8h-.4v.7s0 .1-.1.1v.1zm1-1.4c0-.2-.1-.3-.3-.3h-.5v.6h.5c.2 0 .3-.1.3-.3z"/></svg>
