<?xml version="1.0" encoding="UTF-8"?>
<!DOCTYPE svg PUBLIC "-//W3C//DTD SVG 1.1//EN" "http://www.w3.org/Graphics/SVG/1.1/DTD/svg11.dtd">
<svg xmlns="http://www.w3.org/2000/svg"
  xmlns:xlink="http://www.w3.org/1999/xlink" height="300" viewBox="0 0 313 300" width="313">
  <svg height="46" viewBox="0 0 50 46" width="50" x="184" y="82">
    <path fill="#FFFFFF" d="M23.9,13.6l1.5,1.5L17.6,23l7.9,7.9l-1.6,1.5L14.5,23L23.9,13.6z"/>
    <path fill="#FFFFFF" d="M33.9,13.6l1.5,1.5L27.6,23l7.9,7.9l-1.6,1.5L24.5,23L33.9,13.6z"/>
  </svg>
  <svg height="46" viewBox="0 0 50 46" width="50" x="5" y="159">
    <path fill="#FFFFFF" d="M15.6,24.1l1.5-1.5l7.9,7.8l7.9-7.9l1.5,1.6L25,33.5L15.6,24.1z"/>
    <path fill="#FFFFFF" d="M15.6,14.1l1.5-1.5l7.9,7.8l7.9-7.9l1.5,1.6L25,23.5L15.6,14.1z"/>
  </svg>
  <svg height="46" viewBox="0 0 50 46" width="50" x="60" y="159">
    <path fill="#FFFFFF" d="M26.1,32.4l-1.5-1.5l7.8-7.9l-7.9-7.9l1.6-1.5l9.4,9.4L26.1,32.4z"/>
    <path fill="#FFFFFF" d="M16.1,32.4l-1.5-1.5l7.8-7.9l-7.9-7.9l1.6-1.5l9.4,9.4L16.1,32.4z"/>
  </svg>
  <svg height="17.2" viewBox="0 0 32 18" width="31.3" x="184" y="133">
    <circle fill="#FFFFFF" cx="15.6" cy="8.6" r="2.1"/>
    <path fill="#FFFFFF" d="M30.7,8.1c-3.1-4.5-8.7-7.4-14.8-7.4c-0.1,0-0.2,0-0.3,0s-0.2,0-0.3,0C9.3,0.7,3.6,3.6,0.6,8.1L0.2,8.6  l0.4,0.5c3.1,4.5,8.7,7.4,14.8,7.4c0.1,0,0.2,0,0.3,0s0.2,0,0.3,0c6.1-0.1,11.7-2.9,14.8-7.4L31,8.6L30.7,8.1z M15.6,14.6  c-3.4,0-6.2-2.7-6.2-6s2.8-6,6.2-6s6.2,2.7,6.2,6S19,14.6,15.6,14.6z M2.5,8.6c1.6-2.1,3.9-3.8,6.6-4.8C8,5.1,7.4,6.8,7.4,8.6  s0.7,3.5,1.7,4.8C6.4,12.4,4.1,10.8,2.5,8.6z M22.1,13.5c1.1-1.3,1.7-3,1.7-4.8s-0.7-3.5-1.7-4.8c2.6,1,4.9,2.7,6.6,4.8  C27.1,10.8,24.8,12.4,22.1,13.5z"/>
  </svg>
  <svg height="17.2" viewBox="0 0 32 18" width="31.3" x="115" y="159">
    <circle fill="#000000" cx="15.6" cy="8.6" r="2.1"/>
    <path fill="#000000" d="M30.7,8.1c-3.1-4.5-8.7-7.4-14.8-7.4c-0.1,0-0.2,0-0.3,0s-0.2,0-0.3,0C9.3,0.7,3.6,3.6,0.6,8.1L0.2,8.6  l0.4,0.5c3.1,4.5,8.7,7.4,14.8,7.4c0.1,0,0.2,0,0.3,0s0.2,0,0.3,0c6.1-0.1,11.7-2.9,14.8-7.4L31,8.6L30.7,8.1z M15.6,14.6  c-3.4,0-6.2-2.7-6.2-6s2.8-6,6.2-6s6.2,2.7,6.2,6S19,14.6,15.6,14.6z M2.5,8.6c1.6-2.1,3.9-3.8,6.6-4.8C8,5.1,7.4,6.8,7.4,8.6  s0.7,3.5,1.7,4.8C6.4,12.4,4.1,10.8,2.5,8.6z M22.1,13.5c1.1-1.3,1.7-3,1.7-4.8s-0.7-3.5-1.7-4.8c2.6,1,4.9,2.7,6.6,4.8  C27.1,10.8,24.8,12.4,22.1,13.5z"/>
  </svg>
  <svg height="25" viewBox="0 0 31 25" width="31" x="5" y="210">
    <g>
      <path fill="#ffffff" d="M12.4,12.2L5.4,24.6H0.1L5,12.2H0.5V0.4h11.8V12.2z M30.9,12.2L24,24.6h-5.3l4.9-12.4h-4.5V0.4h11.8V12.2z"/>
    </g>
  </svg>
  <svg height="25" viewBox="0 0 31 25" width="31" x="41" y="210">
    <g>
      <path d="M0.1,12.8L7,0.4h5.3L7.4,12.8h4.5v11.8H0.1V12.8z M18.7,12.8l6.9-12.4h5.3L26,12.8h4.5v11.8H18.7V12.8z"/>
    </g>
  </svg>
  <svg height="25" viewBox="0 0 31 25" width="31" x="77" y="210">
    <g>
      <path fill="#ffffff" d="M0.1,12.8L7,0.4h5.3L7.4,12.8h4.5v11.8H0.1V12.8z M18.7,12.8l6.9-12.4h5.3L26,12.8h4.5v11.8H18.7V12.8z"/>
    </g>
  </svg>
  <svg height="25" viewBox="0 0 31 25" width="31" x="113" y="210">
    <g>
      <path d="M12.4,12.2L5.4,24.6H0.1L5,12.2H0.5V0.4h11.8V12.2z M30.9,12.2L24,24.6h-5.3l4.9-12.4h-4.5V0.4h11.8V12.2z"/>
    </g>
  </svg>
  <svg height="21" viewBox="0 0 30 21" width="30" x="115" y="182">
    <!-- Generator: Sketch 44 (41411) - http://www.bohemiancoding.com/sketch -->
    <title>youtube-play-dark</title>
    <desc>Created with Sketch.</desc>
    <defs/>
    <g id="Page-1" stroke="none" stroke-width="1" fill="none" fill-rule="evenodd">
      <g id="youtube-play-dark" fill-rule="nonzero">
        <polygon id="Shape" fill="#FFFFFF" points="11.6665665 14.1560367 19.6126029 10.0390685 11.6665665 5.89331037"/>
        <polygon id="Shape" fill="#000000" opacity="0.12" points="11.6665665 5.89331037 18.6337434 10.546636 19.6126029 10.0390685"/>
        <path d="M29.1132987,4.46187221 C29.1132987,4.46187221 28.8253988,2.43534501 27.945001,1.54314331 C26.8267979,0.371678734 25.5721303,0.365632837 24.9983458,0.297400567 C20.8831051,0 14.7102439,0 14.7102439,0 L14.6975763,0 C14.6975763,0 8.5247152,0 4.40947443,0.297400567 C3.83568999,0.365632837 2.58159815,0.371678734 1.46281925,1.54314331 C0.58242144,2.43534501 0.294521569,4.46187221 0.294521569,4.46187221 C0.294521569,4.46187221 0,6.84165255 0,9.22143289 L0,11.452369 C0,13.8321493 0.294521569,16.2119297 0.294521569,16.2119297 C0.294521569,16.2119297 0.58242144,18.2384569 1.46281925,19.1309465 C2.58159815,20.3021231 4.05103909,20.265272 4.7054355,20.3879173 C7.05815325,20.6136308 14.7039101,20.6833026 14.7039101,20.6833026 C14.7039101,20.6833026 20.8831051,20.6740898 24.9983458,20.3764013 C25.5741456,20.3078811 26.82651,20.3021231 27.945001,19.1306586 C28.8253988,18.2384569 29.1132987,16.2119297 29.1132987,16.2119297 C29.1132987,16.2119297 29.4069566,13.8321493 29.4069566,11.452369 L29.4069566,9.22143289 C29.4075324,6.84165255 29.1132987,4.46187221 29.1132987,4.46187221 Z M11.6665665,14.1560367 L11.6665665,5.89331037 L19.6126029,10.0390685 L11.6665665,14.1560367 Z" id="Shape" fill="#282928"/>
      </g>
    </g>
  </svg>
  <svg height="20" viewBox="0 0 29 20" width="29" x="150" y="182">
    <!-- Generator: Sketch 44 (41411) - http://www.bohemiancoding.com/sketch -->
    <title>youtube-play-red</title>
    <desc>Created with Sketch.</desc>
    <defs>
      <linearGradient x1="50.0014671%" y1="0%" x2="50.0014671%" y2="100%" id="linearGradient-1">
        <stop stop-color="#E52D27" offset="0%"/>
        <stop stop-color="#BF171D" offset="100%"/>
      </linearGradient>
    </defs>
    <g id="Page-1" stroke="none" stroke-width="1" fill="none" fill-rule="evenodd">
      <g id="youtube-play-red">
        <polygon id="Shape" fill="#FFFFFF" fill-rule="nonzero" points="11.2720445 13.6773296 18.9493741 9.69958275 11.2720445 5.69401947"/>
        <polygon id="Shape" fill="#420000" opacity="0.12" points="11.2720445 5.69401947 18.0036161 10.1899861 18.9493741 9.69958275"/>
        <path d="M28.12879,4.31098748 C28.12879,4.31098748 27.8506259,2.35299026 27,1.49095967 C25.9196106,0.359109875 24.7073713,0.353268428 24.1529903,0.287343533 C20.1769124,0 14.2127955,0 14.2127955,0 L14.2005563,0 C14.2005563,0 8.2364395,0 4.26036161,0.287343533 C3.70598053,0.353268428 2.49429764,0.359109875 1.41335188,1.49095967 C0.562726008,2.35299026 0.284561892,4.31098748 0.284561892,4.31098748 C0.284561892,4.31098748 0,6.61029207 0,8.90959666 L0,11.0650904 C0,13.364395 0.284561892,15.6636996 0.284561892,15.6636996 C0.284561892,15.6636996 0.562726008,17.6216968 1.41335188,18.4840056 C2.49429764,19.6155772 3.91404729,19.5799722 4.54631433,19.6984701 C6.81947149,19.9165508 14.2066759,19.9838665 14.2066759,19.9838665 C14.2066759,19.9838665 20.1769124,19.9749652 24.1529903,19.6873435 C24.7093185,19.6211405 25.9193324,19.6155772 27,18.4837274 C27.8506259,17.6216968 28.12879,15.6636996 28.12879,15.6636996 C28.12879,15.6636996 28.4125174,13.364395 28.4125174,11.0650904 L28.4125174,8.90959666 C28.4130737,6.61029207 28.12879,4.31098748 28.12879,4.31098748 Z M11.2720445,13.6773296 L11.2720445,5.69401947 L18.9493741,9.69958275 L11.2720445,13.6773296 Z" id="Shape" fill="url(#linearGradient-1)" fill-rule="nonzero"/>
      </g>
    </g>
  </svg>
  <svg height="25" viewBox="0 0 25 25" width="25" x="149" y="210">
    <defs id="defs3348"/>
    <g transform="matrix(0.27121977,0,0,0.27121977,-0.88977756,-1.016128)" id="g3338">
      <path id="path3340" d="m 21.207,39.091 c 0,0.174 0,0.336 0,0.511 0.395,0.278 1.323,0.186 1.161,-0.511 -0.221,-0.187 -0.952,-0.187 -1.161,0 z"/>
      <path id="path3342" d="m 82.124,64.929 c 0.012,-0.371 0.186,-0.545 0.104,-0.998 0.674,-0.487 0.615,-1.068 0.882,-2.078 0.396,-1.485 2.183,-4.016 0.662,-5.153 -0.558,0.511 -0.162,0.917 -0.441,1.428 -0.452,0.848 -1.694,0.952 -2.193,1.648 -0.546,0.766 -0.72,2.159 -0.325,2.855 -0.801,0.894 -1.288,2.274 -0.558,3.609 1.011,-0.046 1.312,-0.812 1.869,-1.311 z"/>
      <path id="path3344" d="M 92.037,33.937 C 89.75,27.948 86.233,22.565 81.776,18.125 73.731,10.109 62.67,5.123 50.436,5.002 c -0.151,0 -0.29,-0.006 -0.43,-0.006 -8.091,0 -15.671,2.147 -22.229,5.873 -9.542,5.438 -16.901,14.257 -20.441,24.832 -1.497,4.457 -2.321,9.228 -2.333,14.185 0,0.046 0,0.069 0,0.115 0,2.658 0.244,5.271 0.685,7.812 0.615,3.517 1.637,6.883 3.019,10.075 6.87,15.822 22.553,26.919 40.857,27.105 0.151,0 0.29,0.011 0.441,0.011 8.067,0 15.624,-2.136 22.171,-5.85 13.627,-7.73 22.82,-22.368 22.82,-39.153 C 94.997,44.337 93.94,38.928 92.037,33.937 Z M 63.761,85.822 c -0.673,-0.081 -0.882,-0.429 -1.474,-0.104 0.022,-0.58 -1.011,-0.104 -1.057,-0.638 -1.672,0.221 -3.238,0.395 -4.504,1.056 -0.464,0.244 -0.801,0.743 -1.266,0.848 -0.312,0.058 -0.754,-0.15 -1.056,-0.104 -0.929,0.116 -2.473,1.393 -3.563,1.579 -0.499,0.069 -1.01,-0.07 -1.591,0 -0.127,0.058 -0.278,0.104 -0.418,0.162 -3.354,-0.104 -6.593,-0.627 -9.669,-1.532 0.081,-0.128 0.174,-0.255 0.116,-0.534 -1.66,-0.998 -2.832,-2.483 -4.411,-3.575 -0.034,-0.801 0.639,-0.894 1.266,-1.044 -0.418,-0.999 -2.612,-0.569 -2.519,0.835 0.022,0.477 0.359,0.441 0.417,1.057 -0.476,-0.221 -0.545,-0.859 -1.16,-0.94 0.29,-0.197 0.243,-0.72 -0.209,-0.743 -0.487,-0.093 -0.197,0.581 -0.418,0.743 -0.522,0 -0.511,-0.116 -0.94,0 0.047,0.65 0.905,0.871 1.358,0.522 0.221,0.371 0.221,0.569 0,0.952 0.395,0.58 1.369,0.522 1.996,0.406 0.209,0.034 -0.022,-0.29 -0.104,-0.313 0.221,-0.278 0.465,0.302 0.522,0.534 -0.313,0.139 -0.639,0.209 -0.951,0.243 -1.104,-0.499 -2.171,-1.045 -3.216,-1.637 -0.116,-0.255 -0.395,-0.359 -0.708,-0.418 l 0,0 c -0.221,-0.116 -0.43,-0.255 -0.639,-0.383 0,0 0,0 0,-0.012 -0.012,0 -0.012,0 -0.034,-0.012 -2.821,-1.764 -5.387,-3.877 -7.661,-6.291 -0.07,-0.14 -0.175,-0.255 -0.302,-0.313 C 15.228,69.283 11.363,60.09 11.363,50.002 c 0,-3.842 0.557,-7.544 1.602,-11.05 0.15,0.441 0.128,1.057 0.487,1.288 0.639,-0.383 -0.081,-1.462 -0.186,-2.217 0,-0.023 0.012,-0.058 0.023,-0.081 0.243,0.673 0.812,1.276 0.998,1.984 0.104,0.406 -0.14,0.686 -0.104,1.045 0.128,1.254 1.103,1.394 2.205,2.217 0.522,0.128 0.441,-0.324 0.836,-0.312 0.302,1.404 2.356,1.079 2.426,2.716 0.209,0.348 0.697,0.418 0.72,0.951 0.558,-0.104 0.499,0.406 1.161,0.43 0.197,-0.162 0.023,-0.685 0.418,-0.639 0.534,0.453 0.568,1.405 0.522,2.415 -0.384,0.963 -1.684,2.345 -0.731,3.366 -0.812,0.836 0.046,2.193 0.731,2.519 0.406,1.532 1.01,2.844 1.892,3.877 0.883,0.186 1.23,0.882 1.684,1.475 0.012,2.229 0.302,4.155 0.522,6.094 0.139,1.057 -0.244,2.112 -0.197,3.146 0.058,1.428 1.114,2.356 0.939,3.889 -0.174,0.012 -0.406,-0.047 -0.418,0.104 -0.174,0.639 0.406,0.499 0.522,0.848 0.453,1.497 0.767,3.146 2.206,3.668 0.325,0.046 0.081,-0.488 0.325,-0.511 0.104,-0.279 0.034,0.894 -0.313,0.836 0.452,0.661 1.856,1.032 2.728,0.73 -0.929,-0.673 -1.788,-1.428 -2.311,-2.519 0.303,-0.464 0.569,-0.975 0.836,-1.463 -0.058,-0.511 -0.592,-0.522 -0.836,-0.847 -0.093,-0.441 0.465,-0.232 0.627,-0.418 -0.162,-0.151 -0.093,-0.534 -0.104,-0.848 0.128,-0.14 0.511,-0.035 0.522,-0.313 0.047,-0.522 -0.836,-0.14 -0.731,-0.731 0.268,0.093 0.558,0.14 0.94,0.104 0.174,-0.359 0,-0.696 0,-1.044 1.556,0.533 2.438,-0.639 1.684,-1.788 0.302,0.012 0.685,-0.058 0.847,0.104 1.23,-0.72 1.637,-2.275 2.52,-3.366 0.034,-0.487 -0.197,-0.72 -0.104,-1.254 0.395,-0.649 1.242,-0.847 1.775,-1.369 0.477,-0.047 0.895,0.15 1.266,0 0.963,-0.384 1.358,-3.354 1.161,-5.038 0.395,-0.313 2.414,-2.391 1.984,-3.575 -0.464,-1.3 -3.319,-2.635 -5.246,-2.414 -0.488,-1.126 -1.765,-0.976 -2.729,-1.475 -0.359,-1.88 -1.138,-3.343 -3.575,-3.146 -0.476,-1.045 -1.961,-1.463 -2.101,-2.519 -0.674,-0.081 -1.138,0.047 -1.358,0.418 -0.395,-0.256 -0.592,-0.14 -1.16,-0.104 -0.187,-0.383 -0.593,-0.522 -0.731,-0.94 -0.487,0 -0.441,0.349 -0.639,-0.116 -0.87,0.395 -1.741,0.778 -1.996,1.787 -0.384,-0.197 -1.23,-0.464 -1.881,0 -1.126,-0.916 0.696,-4.085 -1.996,-3.261 0.197,-0.871 0.568,-1.591 0.73,-2.508 -0.127,-0.093 -0.255,-0.139 -0.359,-0.186 0.302,-0.383 0.801,-0.557 1.556,-0.487 0,-1.451 -1.567,-1.475 -2.705,-1.149 -0.186,-0.337 -0.627,-0.731 -1.149,-1.079 0.256,-0.418 0.604,-0.731 1.08,-0.883 0.511,-0.046 0.522,0.395 0.952,0.418 0.278,-0.104 0.348,-0.43 0.312,-0.847 0.802,-0.163 0.895,0.186 1.579,0 0.093,0.882 0.278,1.694 0.627,2.31 1.184,-1.045 -0.163,-2.855 0.627,-4.086 0.58,-0.894 1.671,-0.894 1.996,-1.996 0.059,-0.349 -0.069,-0.488 -0.104,-0.731 0.627,-0.395 0.812,-1.23 1.161,-1.904 0.673,-0.231 0.858,-0.951 1.566,-1.148 0.14,-0.418 -0.336,-0.209 -0.209,-0.627 0.302,-0.674 1.22,-0.755 1.684,-1.254 0.14,0.162 -0.093,0.615 0.209,0.836 0.673,-0.476 1.567,-0.743 2.205,-1.266 0.093,-0.464 -0.186,-0.58 -0.522,-0.627 0.012,-0.302 0.441,-0.186 0.418,-0.521 -0.069,-0.372 -0.801,-0.116 -1.044,-0.313 0.081,-0.932 0.975,-0.418 1.566,-0.836 0.104,-0.525 -0.661,-0.183 -0.836,-0.427 0.65,-0.36 1.8,-0.232 1.893,-1.161 0.94,-0.139 1.428,-0.736 1.671,-1.572 -0.046,-0.54 -0.812,-0.36 -0.73,-1.051 -0.384,0.035 -0.686,-0.018 -0.94,-0.099 -0.244,-1.021 -0.511,-2.014 -0.848,-2.948 -0.302,0.041 -0.487,0.191 -0.639,0.383 -0.022,-0.012 -0.034,-0.029 -0.058,-0.035 -0.104,0.14 -0.349,0.094 -0.546,-0.028 2.275,-1.358 4.701,-2.49 7.255,-3.366 0.116,0.15 0.244,0.296 0.499,0.319 -0.197,0.435 -0.209,0.615 0.104,0.939 0.43,0.082 0.604,-0.099 0.952,-0.099 0.209,0.14 0.267,0.436 0.522,0.522 0.801,-0.493 1.903,-1.213 1.578,-2.205 0.256,-0.128 0.396,-0.383 0.511,-0.662 2.717,-0.604 5.525,-0.923 8.416,-0.923 4.353,0 8.531,0.731 12.443,2.061 -0.349,1.01 0.069,2.728 0.998,2.885 0.72,0.122 0.894,-0.447 1.684,-0.627 0.162,0.737 0.627,1.189 1.044,1.678 0.023,0.517 -0.777,0.203 -0.626,0.841 0.209,0.645 1.647,0.662 2.101,0.418 0.128,-0.923 0.081,-2.014 0.848,-2.31 0.012,-0.093 0.012,-0.174 0,-0.238 0.731,0.4 1.439,0.824 2.136,1.271 0.116,0.342 0.476,0.568 0.487,1.073 -0.499,0.029 -0.325,-0.598 -0.848,-0.528 -0.685,0.215 -0.499,1.312 -0.836,1.893 -1.265,-0.465 -2.402,0.54 -3.459,-0.424 0.325,-0.708 -0.464,-0.667 -0.742,-1.051 0.278,-0.754 0.313,-1.103 0,-1.886 -1.405,0.075 -1.219,1.59 -0.731,2.519 -0.465,0.041 -1.23,0.012 -1.788,0.215 -0.359,0.412 -0.418,1.126 -1.265,1.051 -0.325,-0.29 0.359,-0.522 0,-0.848 -0.151,-0.203 -0.534,-0.156 -0.731,-0.313 -0.023,-0.72 -0.43,-1.045 -0.952,-1.265 0.081,-0.39 0.14,-0.743 -0.418,-0.731 -0.069,-0.447 0.337,-0.424 0.313,-0.842 -0.069,-0.267 -0.336,-0.365 -0.731,-0.313 -0.093,-0.296 0.151,-0.272 0.104,-0.522 -0.174,-0.18 -0.615,-0.087 -0.951,-0.11 -0.499,0.308 -0.418,1.185 -0.836,1.579 -0.047,0.331 0.511,0.034 0.418,0.418 0.069,0.418 -0.499,0.133 -0.522,0 -0.685,0.272 -0.859,0.853 -1.684,0.736 0.094,0.401 0.14,0.848 0.104,1.364 0.268,0.267 0.743,0.313 0.94,0.633 0.627,-0.128 1.08,-0.389 1.37,-0.848 0,-0.313 0,-0.627 0,-0.94 0.255,-0.093 0.464,-0.249 0.848,-0.209 -0.104,0.412 0.312,0.313 0.208,0.726 -0.255,-0.006 -0.511,-0.012 -0.626,0.11 -0.082,0.395 0.174,0.447 0.104,0.842 -0.268,-0.018 -0.511,-0.018 -0.627,0.11 0.022,0.272 0.243,0.371 0.627,0.313 -0.047,0.436 -0.5,0.481 -0.627,0.836 0.731,0.249 1.973,0.093 2.623,-0.104 -0.209,0.522 0.337,0.278 0.313,0.627 -1.033,-0.528 -1.068,0.423 -2.31,0.214 -0.151,0.134 -0.104,0.453 -0.104,0.737 0.928,0.482 2.298,1.033 1.671,2.72 -1.474,0.243 -3.122,-0.812 -3.981,0.115 0.615,1.277 -0.139,2.543 0.104,3.784 0.627,0.163 1.532,0.059 1.881,0.511 -0.313,0.291 -0.627,0.569 -0.627,1.161 -1.544,0.349 -1.335,2.461 -2.31,3.366 -1.893,0.708 -2.392,2.798 -3.471,4.295 0.905,0.917 0.476,2.972 -0.104,3.9 0.162,0.359 0.44,0.604 0.313,1.253 0.312,0.5 0.858,0.755 1.369,1.057 0.731,1.66 1.556,3.784 3.354,3.981 0.79,0.093 1.196,-0.592 1.893,-0.627 0.673,-0.023 0.87,0.476 1.578,0.522 1.08,-0.29 2.066,-1.23 3.157,-1.045 0.905,0.162 1.532,1.741 2.624,0.94 0.383,0.731 0.231,2.205 -0.116,2.832 0.406,1.358 1.428,2.09 1.683,3.575 1.985,1.404 -0.29,3.506 -0.104,5.363 0.093,0.928 0.929,1.625 1.057,2.623 0.232,1.95 0.824,3.378 1.787,4.828 0.012,0.303 -0.359,0.209 -0.209,0.627 0.406,1.637 2.136,-0.081 3.146,0.313 1.01,-0.638 2.182,-1.103 2.519,-2.414 1.347,-0.511 1.416,-2.299 2.101,-3.471 0.175,0 0.349,0 0.522,0 0.383,-0.558 0.418,-1.741 0,-2.299 0.477,-0.998 1.382,-1.566 2.206,-2.205 0.046,-1.323 0.557,-2.136 0.209,-3.157 -0.163,-0.487 -0.778,-0.731 -0.836,-1.161 -0.256,-1.659 1.927,-2.089 2.101,-3.877 0.278,-0.069 0.395,-0.302 0.627,-0.418 0.337,-1.845 1.637,-3.272 1.475,-5.258 -0.79,0.383 -1.765,0.477 -2.52,0.639 -0.278,-0.337 0.186,-0.592 0.313,-0.848 -0.858,-1.312 -2.611,-2.739 -2.31,-4.515 -0.696,-0.917 -1.475,-2.311 -1.579,-3.46 0.65,-0.139 0.859,1.011 1.057,1.672 0.093,0.43 0.557,0.499 0.731,0.848 0.093,1.938 1.578,2.473 1.671,4.411 0.418,0.324 0.36,1.114 0.952,1.253 0.418,0.07 0.302,-0.395 0.313,-0.731 1.126,-0.766 2.496,-1.276 3.459,-2.205 0,-0.777 0.487,-0.859 0.43,-1.475 -0.069,-0.673 -0.952,-0.917 -0.952,-1.671 0.546,0.046 0.917,0.267 1.416,0.371 1.138,3.634 1.741,7.487 1.741,11.479 0,15.59 -9.251,29.031 -22.554,35.125 -1.007,-0.046 -1.843,0.047 -2.33,0.696 z M 28.996,23.861 c -0.29,-0.093 0.093,-0.369 0.093,-0.525 0.406,0.053 0.522,-0.191 0.952,-0.104 -0.059,0.501 -0.767,0.354 -1.045,0.629 z m 0.523,1.254 c 0.243,0.034 0.43,0.127 0.627,0.22 -0.094,0.221 -0.767,0.14 -0.627,-0.22 z m -5.364,-1.779 c -0.359,-0.558 -0.127,-1.271 0,-1.892 0.012,-0.07 -0.023,-0.094 -0.069,-0.104 0.661,-0.599 1.347,-1.161 2.043,-1.719 -0.128,0.993 -0.894,1.353 -1.451,1.928 0.267,0.574 0.313,1.74 -0.523,1.787 z m -0.836,3.996 c -0.452,-0.406 -0.557,0.221 -0.626,0.522 -0.104,-0.313 -0.256,-0.592 -0.325,-0.952 0.325,0.151 0.383,-0.046 0.847,0 -0.011,0.198 0.128,0.221 0.104,0.43 z M 21.01,26.38 c 0.151,-0.197 0.441,-0.255 0.522,-0.522 0.337,0.093 0.546,0.29 0.522,0.731 -0.36,-0.081 -0.395,0.163 -0.731,0.104 0.116,-0.325 0.105,-0.337 -0.313,-0.313 z m -0.314,0.43 c -0.186,-0.081 -0.012,-0.197 0,-0.325 0.186,0.08 0.012,0.185 0,0.325 z m -2.449,11.63 c -0.023,0.244 0.151,0.29 0.128,0.522 -0.36,-0.023 -0.696,-0.012 -0.639,0.383 0.232,0.615 0.848,0.325 1.3,0.569 -0.812,0.104 -0.685,1.973 -2.02,1.706 -0.104,-0.313 -0.197,-0.662 -0.255,-1.01 0.116,-0.023 0.267,-0.047 0.464,-0.104 -0.116,-0.65 -0.371,-0.812 -0.592,-0.755 -0.023,-0.302 -0.012,-0.615 0.012,-0.917 0.697,0.036 1.08,-0.254 1.602,-0.394 z m 6.547,6.628 c -0.012,-0.255 0.162,-0.313 0.209,-0.522 0.383,0.081 0.128,0.569 -0.209,0.522 z m 60.383,-7.765 c -0.336,0.511 -0.464,1.207 -1.369,1.161 -0.232,-0.29 -0.302,-0.755 -0.313,-1.266 -0.197,-0.197 -0.384,-0.034 -0.627,0 -0.174,-0.673 -0.604,-1.079 -0.639,-1.892 1.138,0.313 0.894,1.973 2.008,2.31 0.452,0.035 0.534,-0.302 0.94,-0.313 z m -2.844,-8.474 c 0,0.023 0,0.047 0.012,0.07 0.081,0.115 0.174,0.231 0.256,0.348 0.046,0.069 0.081,0.14 0.115,0.197 0.256,0.395 0.453,0.836 0.465,1.451 -1.591,0.069 -2.206,-1.161 -1.672,-2.623 -0.673,-0.674 -1.3,-1.684 -1.566,-2.693 0.846,1.033 1.647,2.124 2.39,3.25 z m -11.225,4.794 c -1.66,-0.58 -2.6,-1.88 -4.202,-2.519 0.244,-0.859 -0.487,-1.01 -0.209,-1.579 -0.313,-0.116 -0.615,-0.22 -0.847,-0.418 -0.313,0.035 -0.465,0.232 -0.731,0.325 -1.312,-0.162 -2.473,-0.278 -3.68,0 -1.126,0.244 -2.264,1.149 -3.354,0.209 1.357,-0.081 2.321,-0.43 3.041,-1.16 -0.232,-1.776 1.335,-1.753 1.578,-3.053 0.999,0.371 1.765,0.104 2.52,-0.313 0.848,1.323 2.763,1.578 3.146,3.366 -0.546,0.093 -1.021,0.267 -1.567,-0.104 -0.197,0.615 0.488,1.172 0.836,1.578 0.325,0.081 0.383,-0.116 0.627,-0.104 0.047,-0.371 -0.035,-0.592 -0.104,-0.848 0.313,0 0.534,0.313 0.743,0.116 0.058,-0.324 0.29,-0.487 0.627,-0.533 0.069,-0.384 -0.232,-0.406 -0.209,-0.731 0.348,0 0.511,0.499 0.835,0.209 0.035,-0.94 -0.998,-0.824 -1.148,-1.579 0.627,-0.186 0.824,0.081 1.253,0.325 0.256,1.729 0.895,3.088 2.311,3.668 0.174,0.081 0.174,-0.487 0,-0.418 0.104,-0.325 0.29,0.116 0.418,0.104 0.255,0.035 -0.059,-0.476 0.324,-0.313 -0.267,-0.836 -0.429,-1.138 -0.429,-2.205 0.824,0 0.754,1.276 0.742,1.787 0.488,0.674 1.208,1.625 2.415,1.254 0.371,-0.023 0.336,0.359 0.627,0.418 0.452,0 0.673,-0.244 1.16,-0.209 -0.116,0.998 -0.023,1.787 -0.209,2.832 -2.055,-0.162 -4.062,-0.325 -5.142,-1.671 -0.313,0.312 -1.207,0.058 -1.475,0.406 -0.082,0.511 0.162,0.684 0.103,1.16 z m -9.982,-13.02 c 0.325,-0.151 0.15,0.609 -0.104,0.522 -0.047,-0.25 0.185,-0.227 0.104,-0.522 z m 13.546,6.729 c -0.197,-0.256 -0.359,-0.546 -0.627,-0.743 0.337,-0.534 0.558,-1.184 0.94,-1.683 0.499,-0.035 0.476,0.429 1.057,0.313 -0.128,0.312 -0.035,0.359 0.093,0.638 0.464,-0.231 0.94,0.012 1.381,0.104 0.082,-0.406 -0.231,-0.406 -0.429,-0.533 0.162,-0.209 0.742,-0.023 0.951,-0.209 -0.034,0.243 0.023,0.406 0.209,0.429 0.012,0.221 -0.371,0.047 -0.522,0.093 0.07,0.221 0.197,0.372 0.337,0.522 -0.151,0.012 -0.302,0.035 -0.441,0.104 -0.058,0.755 0.372,0.999 0.778,1.277 0.255,-0.209 0.708,-0.221 0.963,-0.441 0.268,0.209 0.477,0.465 0.558,0.859 -1.882,0.047 -2.961,-1.369 -5.248,-0.73 z"/>
    </g>
  </svg>
  <svg height="24" viewBox="0 0 24 24" width="24" x="179" y="210">
    <g>
      <path fill="#FFFFFF" d="M24,2.5L14.5,12l9.5,9.5L21.5,24L12,14.5L2.5,24L0,21.5L9.5,12L0,2.5L2.5,0L12,9.5L21.5,0L24,2.5z"/>
    </g>
  </svg>
  <svg height="20" viewBox="0 0 20 20" width="20" x="184" y="182">
    <path fill="#000000" d="M17.1,0c0.8,0,1.5,0.3,2.1,0.9C19.7,1.4,20,2.1,20,2.9v14.2c0,0.8-0.3,1.5-0.9,2.1c-0.6,0.6-1.3,0.9-2.1,0.9  H2.9c-0.8,0-1.5-0.3-2.1-0.9S0,17.9,0,17.1V2.9c0-0.8,0.3-1.5,0.9-2.1S2.1,0,2.9,0C2.9,0,17.1,0,17.1,0z M10,6.2  c-1,0-1.9,0.4-2.7,1.1S6.3,9,6.3,10s0.4,1.9,1.1,2.7c0.7,0.7,1.6,1.1,2.7,1.1c1,0,1.9-0.4,2.7-1.1c0.7-0.7,1.1-1.6,1.1-2.7  s-0.4-1.9-1.1-2.7C11.9,6.6,11,6.2,10,6.2z M17.9,17.5V8.7h-2.2c0.1,0.4,0.1,0.8,0.1,1.2c0,1.1-0.3,2-0.8,2.9s-1.2,1.6-2.1,2.1  c-0.9,0.5-1.9,0.8-2.9,0.8S8,15.6,7.1,15c-0.9-0.5-1.6-1.2-2.1-2.1C4.4,12,4.2,11.1,4.2,10c0-0.4,0-0.9,0.1-1.2H2.1v8.7  c0,0.1,0,0.2,0.1,0.3s0.2,0.1,0.3,0.1h15c0.1,0,0.2,0,0.3-0.1C17.9,17.7,17.9,17.6,17.9,17.5L17.9,17.5z M17.9,5V2.5  c0-0.1,0-0.2-0.1-0.3c-0.1-0.1-0.2-0.1-0.3-0.1H15c-0.1,0-0.2,0-0.3,0.1c-0.1,0.1-0.1,0.2-0.1,0.3V5c0,0.1,0,0.2,0.1,0.3  c0.1,0.1,0.2,0.1,0.3,0.1h2.5c0.1,0,0.2,0,0.3-0.1C17.9,5.2,17.9,5.1,17.9,5z"/>
  </svg>
  <svg height="20" viewBox="0 0 20 20" width="20" x="209" y="182">
    <g>
      <path fill="#ffffff" d="M11.4,7.3c-0.2-0.2-0.5-0.3-0.8-0.3C10,6.9,9.5,7.3,9,8.1c-0.5,0.8-0.7,1.5-0.7,2.3c0,0.4,0.1,0.8,0.3,1.1   c0.2,0.3,0.5,0.4,0.9,0.4c0.6,0,1.2-0.5,1.6-1.5c0.4-1,0.6-1.7,0.6-2.3C11.7,7.8,11.6,7.5,11.4,7.3z"/>
      <path fill="#ffffff" d="M18,0H2C0.9,0,0,0.9,0,2v16c0,1.1,0.9,2,2,2h16c1.1,0,2-0.9,2-2V2C20,0.9,19.1,0,18,0z M10.8,12.5   c-0.5,0.5-1.1,0.7-1.8,0.7c-0.7,0-1.3-0.3-1.8-0.8c-0.5-0.5-0.7-1.3-0.7-2.2c0-1.1,0.4-2.1,1.1-3.1c0.7-1,1.7-1.4,2.7-1.4   c0.6,0,1.1,0.2,1.5,0.5c0.3,0.3,0.4,0.6,0.5,0.9L12.5,6h1.7l-1.2,3.9c-0.1,0.3-0.2,0.6-0.2,0.7c0,0.2-0.1,0.3-0.1,0.4   c0,0.2,0.1,0.4,0.2,0.5c0.1,0.2,0.3,0.2,0.6,0.2c0.5,0,1-0.3,1.6-1c0.5-0.7,0.8-1.6,0.8-2.7c0-1.7-0.7-2.8-2.1-3.6   c-0.9-0.5-1.9-0.7-3-0.7c-2,0-3.7,0.6-4.9,1.9C4.7,6.9,4.2,8.2,4.2,9.8c0,1.8,0.7,3.2,2,4.2c1.2,0.9,2.6,1.4,4.3,1.4   c1.1,0,2.2-0.2,3.2-0.6c0.5-0.2,1.1-0.5,1.7-0.9l0.2-0.2l0.7,1c-0.9,0.7-1.8,1.2-2.8,1.5c-1,0.3-2,0.5-3.1,0.5   c-2.5,0-4.4-0.8-5.8-2.3C3.3,13,2.8,11.5,2.8,9.7c0-2,0.7-3.7,2.1-5c1.5-1.5,3.4-2.2,5.7-2.2c1.9,0,3.5,0.5,4.7,1.5   c1.3,1,2,2.4,2,4.2c0,1.4-0.4,2.5-1.2,3.5c-0.8,1-1.8,1.5-2.8,1.5c-0.6,0-1-0.2-1.3-0.5c-0.3-0.3-0.4-0.6-0.4-1c0,0,0-0.1,0-0.1   c0-0.1,0-0.1,0-0.2C11.3,11.9,11.1,12.2,10.8,12.5z"/>
    </g>
  </svg>
  <svg height="20" viewBox="0 0 20 20" width="20" x="208" y="210">
    <g>
      <path fill="#000000" d="M11.4,7.3c-0.2-0.2-0.5-0.3-0.8-0.3C10,6.9,9.5,7.3,9,8.1c-0.5,0.8-0.7,1.5-0.7,2.3c0,0.4,0.1,0.8,0.3,1.1   c0.2,0.3,0.5,0.4,0.9,0.4c0.6,0,1.2-0.5,1.6-1.5c0.4-1,0.6-1.7,0.6-2.3C11.7,7.8,11.6,7.5,11.4,7.3z"/>
      <path fill="#000000" d="M18,0H2C0.9,0,0,0.9,0,2v16c0,1.1,0.9,2,2,2h16c1.1,0,2-0.9,2-2V2C20,0.9,19.1,0,18,0z M10.8,12.5   c-0.5,0.5-1.1,0.7-1.8,0.7c-0.7,0-1.3-0.3-1.8-0.8c-0.5-0.5-0.7-1.3-0.7-2.2c0-1.1,0.4-2.1,1.1-3.1c0.7-1,1.7-1.4,2.7-1.4   c0.6,0,1.1,0.2,1.5,0.5c0.3,0.3,0.4,0.6,0.5,0.9L12.5,6h1.7l-1.2,3.9c-0.1,0.3-0.2,0.6-0.2,0.7c0,0.2-0.1,0.3-0.1,0.4   c0,0.2,0.1,0.4,0.2,0.5c0.1,0.2,0.3,0.2,0.6,0.2c0.5,0,1-0.3,1.6-1c0.5-0.7,0.8-1.6,0.8-2.7c0-1.7-0.7-2.8-2.1-3.6   c-0.9-0.5-1.9-0.7-3-0.7c-2,0-3.7,0.6-4.9,1.9C4.7,6.9,4.2,8.2,4.2,9.8c0,1.8,0.7,3.2,2,4.2c1.2,0.9,2.6,1.4,4.3,1.4   c1.1,0,2.2-0.2,3.2-0.6c0.5-0.2,1.1-0.5,1.7-0.9l0.2-0.2l0.7,1c-0.9,0.7-1.8,1.2-2.8,1.5c-1,0.3-2,0.5-3.1,0.5   c-2.5,0-4.4-0.8-5.8-2.3C3.3,13,2.8,11.5,2.8,9.7c0-2,0.7-3.7,2.1-5c1.5-1.5,3.4-2.2,5.7-2.2c1.9,0,3.5,0.5,4.7,1.5   c1.3,1,2,2.4,2,4.2c0,1.4-0.4,2.5-1.2,3.5c-0.8,1-1.8,1.5-2.8,1.5c-0.6,0-1-0.2-1.3-0.5c-0.3-0.3-0.4-0.6-0.4-1c0,0,0-0.1,0-0.1   c0-0.1,0-0.1,0-0.2C11.3,11.9,11.1,12.2,10.8,12.5z"/>
    </g>
  </svg>
  <svg height="20" viewBox="0 0 20 20" width="20" x="246" y="5">
    <path fill="#FFFFFF" d="M18,0H2C0.9,0,0,0.9,0,2v16c0,1.1,0.9,2,2,2h16c1.1,0,2-0.9,2-2V2C20,0.9,19.1,0,18,0z M15,5h-1.4c-1.1,0-1.1,0.9-1.1,1.6  v2.1h2.4l-0.3,2.5h-2.1v6.2H10v-6.2H7.5V8.8H10V6.4c0-2.2,1.2-3.4,3.2-3.4C14.1,2.9,15,3,15,3V5z"/>
  </svg>
  <svg height="20" viewBox="0 0 20 20" width="20" x="246" y="30">
    <path fill="#000000" d="M18,0H2C0.9,0,0,0.9,0,2v16c0,1.1,0.9,2,2,2h16c1.1,0,2-0.9,2-2V2C20,0.9,19.1,0,18,0z M15,5h-1.4c-1.1,0-1.1,0.9-1.1,1.6  v2.1h2.4l-0.3,2.5h-2.1v6.2H10v-6.2H7.5V8.8H10V6.4c0-2.2,1.2-3.4,3.2-3.4C14.1,2.9,15,3,15,3V5z"/>
  </svg>
  <svg height="20" viewBox="0 0 20 20" width="20" x="246" y="55">
    <path fill="#FFFFFF" d="M20,3.6c-0.5,0.8-1.2,1.5-2,2.1v0.5c0,0.9-0.1,1.8-0.3,2.7c-0.2,0.9-0.6,1.8-1,2.7s-1,1.7-1.7,2.4  c-0.7,0.8-1.4,1.4-2.3,2c-0.8,0.6-1.8,1-2.9,1.3c-1.1,0.3-2.3,0.5-3.5,0.5c-2.5,0-4.6-0.6-6.3-1.7c0.3,0,0.6,0.1,1,0.1  c0.9,0,1.8-0.2,2.7-0.5s1.7-0.8,2.4-1.4c-0.9,0-1.7-0.3-2.4-0.8s-1.2-1.2-1.4-2c0.3,0.1,0.5,0.1,0.8,0.1c0.4,0,0.7,0,1.1-0.1  c-0.9-0.2-1.7-0.7-2.4-1.4S0.8,8.4,0.8,7.4v0C1.4,7.7,2,7.9,2.7,7.9C2.1,7.5,1.6,7,1.3,6.4S0.8,5.2,0.8,4.5c0-0.7,0.2-1.3,0.6-2  c1,1.3,2.3,2.2,3.7,3c1.5,0.7,3,1.1,4.7,1.2C9.8,6.5,9.7,6.1,9.7,5.8c0-1.1,0.4-2.1,1.2-2.9s1.8-1.2,2.9-1.2c1.2,0,2.2,0.4,3,1.3  c0.9-0.2,1.8-0.5,2.6-1c-0.3,1-0.9,1.7-1.8,2.3C18.4,4.1,19.2,3.9,20,3.6L20,3.6z"/>
  </svg>
  <svg height="20" viewBox="0 0 20 20" width="20" x="246" y="80">
    <path fill="#000000" d="M20,3.6c-0.5,0.8-1.2,1.5-2,2.1v0.5c0,0.9-0.1,1.8-0.3,2.7c-0.2,0.9-0.6,1.8-1,2.7s-1,1.7-1.7,2.4  c-0.7,0.8-1.4,1.4-2.3,2c-0.8,0.6-1.8,1-2.9,1.3c-1.1,0.3-2.3,0.5-3.5,0.5c-2.5,0-4.6-0.6-6.3-1.7c0.3,0,0.6,0.1,1,0.1  c0.9,0,1.8-0.2,2.7-0.5s1.7-0.8,2.4-1.4c-0.9,0-1.7-0.3-2.4-0.8s-1.2-1.2-1.4-2c0.3,0.1,0.5,0.1,0.8,0.1c0.4,0,0.7,0,1.1-0.1  c-0.9-0.2-1.7-0.7-2.4-1.4S0.8,8.4,0.8,7.4v0C1.4,7.7,2,7.9,2.7,7.9C2.1,7.5,1.6,7,1.3,6.4S0.8,5.2,0.8,4.5c0-0.7,0.2-1.3,0.6-2  c1,1.3,2.3,2.2,3.7,3c1.5,0.7,3,1.1,4.7,1.2C9.8,6.5,9.7,6.1,9.7,5.8c0-1.1,0.4-2.1,1.2-2.9s1.8-1.2,2.9-1.2c1.2,0,2.2,0.4,3,1.3  c0.9-0.2,1.8-0.5,2.6-1c-0.3,1-0.9,1.7-1.8,2.3C18.4,4.1,19.2,3.9,20,3.6L20,3.6z"/>
  </svg>
  <svg height="20" viewBox="0 0 20 20" width="20" x="246" y="105">
    <path fill="#27346A" d="M15.8 1.7C14.9.7 13.3.2 11.2.2H5.1c-.4.1-.8.4-.8.8L1.8 17c-.1.3.2.6.5.6H6l.9-6v.2c.1-.4.4-.7.9-.7h1.8c3.5 0 6.2-1.4 7-5.5 0-.1 0-.2.1-.4-.1-.1-.1-.1 0 0 .2-1.5-.1-2.5-.9-3.5"/>
    <path fill="#27346A" d="M8.4 4.7c.1 0 .2-.1.3-.1h4.7c.6 0 1.1 0 1.6.1.1 0 .3 0 .4.1.2 0 .4.1.6.2.2.1.5.2.7.3.2-1.5 0-2.5-.8-3.5C15 .8 13.4.3 11.3.3H5.1c-.4 0-.8.3-.8.7L1.8 17c-.1.3.2.6.5.6H6L8 5.2c0-.2.1-.4.4-.5z"/>
    <path fill="#2790C3" d="M16.6 5.6c-.8 4.1-3.5 5.5-7 5.5H7.8c-.4 0-.8.3-.9.7l-1.2 7.4c0 .3.2.5.4.5h3.1c.4 0 .7-.3.7-.6v-.2l.6-3.8v-.2c.1-.4.4-.6.7-.6h.8c3.1 0 5.4-1.2 6.1-4.8.3-1.5.1-2.7-.6-3.6-.2-.3-.5-.5-.9-.7v.4z"/>
    <path fill="#1F264F" d="M15.8 4.9c-.1 0-.2-.1-.4-.1-.1 0-.3-.1-.4-.1-.5-.1-1-.1-1.6-.1H8.7c-.1 0-.2 0-.3.1-.3.1-.4.3-.4.5l-1 6.4v.2c.1-.4.4-.7.9-.7h1.8c3.5 0 6.2-1.4 7-5.5 0-.1 0-.2.1-.4-.4-.1-.6-.2-.8-.3h-.2"/>
  </svg>
  <svg height="20" viewBox="0 0 20 20" width="20" x="246" y="130">
    <path fill="#55acee" d="M20,3.6c-0.5,0.8-1.2,1.5-2,2.1v0.5c0,0.9-0.1,1.8-0.3,2.7c-0.2,0.9-0.6,1.8-1,2.7s-1,1.7-1.7,2.4  c-0.7,0.8-1.4,1.4-2.3,2c-0.8,0.6-1.8,1-2.9,1.3c-1.1,0.3-2.3,0.5-3.5,0.5c-2.5,0-4.6-0.6-6.3-1.7c0.3,0,0.6,0.1,1,0.1  c0.9,0,1.8-0.2,2.7-0.5s1.7-0.8,2.4-1.4c-0.9,0-1.7-0.3-2.4-0.8s-1.2-1.2-1.4-2c0.3,0.1,0.5,0.1,0.8,0.1c0.4,0,0.7,0,1.1-0.1  c-0.9-0.2-1.7-0.7-2.4-1.4S0.8,8.4,0.8,7.4v0C1.4,7.7,2,7.9,2.7,7.9C2.1,7.5,1.6,7,1.3,6.4S0.8,5.2,0.8,4.5c0-0.7,0.2-1.3,0.6-2  c1,1.3,2.3,2.2,3.7,3c1.5,0.7,3,1.1,4.7,1.2C9.8,6.5,9.7,6.1,9.7,5.8c0-1.1,0.4-2.1,1.2-2.9s1.8-1.2,2.9-1.2c1.2,0,2.2,0.4,3,1.3  c0.9-0.2,1.8-0.5,2.6-1c-0.3,1-0.9,1.7-1.8,2.3C18.4,4.1,19.2,3.9,20,3.6L20,3.6z"/>
  </svg>
  <svg height="20" viewBox="0 0 20 20" width="20" x="246" y="155">
    <g>
      <path fill="#FFF" d="M9.2,3.1c-0.3-0.3-0.6-0.4-1-0.4c-0.5,0-1,0.2-1.3,0.6c-0.4,0.5-0.5,1-0.5,1.5C6.4,5.5,6.6,6.2,7,7   c0.2,0.4,0.5,0.7,0.8,0.9c0.3,0.3,0.7,0.4,1.1,0.4c0.5,0,0.9-0.2,1.3-0.6c0.2-0.2,0.3-0.5,0.3-0.8c0-0.3,0-0.5,0-0.7   c0-0.8-0.2-1.6-0.6-2.3C9.8,3.6,9.5,3.3,9.2,3.1z"/>
      <path fill="#FFF" d="M9.1,11.4c-0.1,0-0.4,0-0.8,0c-0.4,0.1-0.8,0.1-1.2,0.3c-0.1,0-0.2,0.1-0.4,0.2c-0.2,0.1-0.4,0.2-0.6,0.4   c-0.2,0.2-0.3,0.4-0.5,0.6c-0.1,0.2-0.2,0.5-0.2,0.9c0,0.7,0.3,1.3,0.9,1.7c0.6,0.4,1.4,0.7,2.4,0.7c0.9,0,1.6-0.2,2.1-0.6   c0.6-0.4,0.8-0.9,0.8-1.6c0-0.5-0.2-0.9-0.5-1.3c-0.3-0.4-0.9-0.8-1.6-1.3C9.4,11.4,9.2,11.4,9.1,11.4z"/>
      <path fill="#FFF" d="M18,0H2C0.9,0,0,0.9,0,2v16c0,1.1,0.9,2,2,2h16c1.1,0,2-0.9,2-2V2C20,0.9,19.1,0,18,0z M11.3,3.3   c0.1,0.2,0.3,0.2,0.4,0.4C11.9,4,12,4.2,12.1,4.5c0.1,0.3,0.1,0.6,0.1,1c0,0.7-0.2,1.2-0.5,1.7c-0.1,0.2-0.3,0.4-0.5,0.6   s-0.4,0.3-0.6,0.5c-0.1,0.1-0.2,0.3-0.3,0.4c-0.1,0.2-0.2,0.3-0.2,0.6c0,0.2,0.1,0.4,0.2,0.5c0.1,0.1,0.2,0.2,0.3,0.3l0.7,0.5   c0.4,0.3,0.8,0.7,1.1,1.1c0.3,0.4,0.4,1,0.5,1.6c0,1-0.4,1.8-1.3,2.5C10.8,16.6,9.5,17,7.9,17c-1.4,0-2.4-0.3-3.1-0.9   c-0.7-0.5-1-1.2-1-1.9c0-0.4,0.1-0.8,0.3-1.2c0.2-0.4,0.6-0.8,1.2-1.2c0.6-0.4,1.3-0.6,2-0.7C8,11,8.5,10.9,9,10.9   c-0.1-0.2-0.3-0.4-0.4-0.6c-0.1-0.2-0.2-0.5-0.2-0.7s0-0.3,0.1-0.4c0-0.1,0.1-0.2,0.1-0.3c-0.2,0-0.4,0-0.6,0c-1,0-1.8-0.3-2.4-1   C5,7.2,4.7,6.5,4.7,5.8c0-1,0.4-1.8,1.2-2.6C6.5,2.7,7,2.4,7.6,2.3C8.3,2.1,8.9,2,9.4,2h3.9l-1.2,1.2h-1.2   C11,3.2,11.2,3.2,11.3,3.3z M18.8,5.2h-1.8v0.5V6v1h-1.3V6.1V5.7V5.2H15h-0.3h-1V3.8h0.9H15h0.5V2h1.3v1.8h1.8V5.2z"/>
    </g>
  </svg>
  <svg height="20" viewBox="0 0 20 20" width="20" x="246" y="180">
    <path fill="#FFFFFF" d="M17.1,0c0.8,0,1.5,0.3,2.1,0.9C19.7,1.4,20,2.1,20,2.9v14.2c0,0.8-0.3,1.5-0.9,2.1c-0.6,0.6-1.3,0.9-2.1,0.9  H2.9c-0.8,0-1.5-0.3-2.1-0.9S0,17.9,0,17.1V2.9c0-0.8,0.3-1.5,0.9-2.1S2.1,0,2.9,0C2.9,0,17.1,0,17.1,0z M10,6.2  c-1,0-1.9,0.4-2.7,1.1S6.3,9,6.3,10s0.4,1.9,1.1,2.7c0.7,0.7,1.6,1.1,2.7,1.1c1,0,1.9-0.4,2.7-1.1c0.7-0.7,1.1-1.6,1.1-2.7  s-0.4-1.9-1.1-2.7C11.9,6.6,11,6.2,10,6.2z M17.9,17.5V8.7h-2.2c0.1,0.4,0.1,0.8,0.1,1.2c0,1.1-0.3,2-0.8,2.9s-1.2,1.6-2.1,2.1  c-0.9,0.5-1.9,0.8-2.9,0.8S8,15.6,7.1,15c-0.9-0.5-1.6-1.2-2.1-2.1C4.4,12,4.2,11.1,4.2,10c0-0.4,0-0.9,0.1-1.2H2.1v8.7  c0,0.1,0,0.2,0.1,0.3s0.2,0.1,0.3,0.1h15c0.1,0,0.2,0,0.3-0.1C17.9,17.7,17.9,17.6,17.9,17.5L17.9,17.5z M17.9,5V2.5  c0-0.1,0-0.2-0.1-0.3c-0.1-0.1-0.2-0.1-0.3-0.1H15c-0.1,0-0.2,0-0.3,0.1c-0.1,0.1-0.1,0.2-0.1,0.3V5c0,0.1,0,0.2,0.1,0.3  c0.1,0.1,0.2,0.1,0.3,0.1h2.5c0.1,0,0.2,0,0.3-0.1C17.9,5.2,17.9,5.1,17.9,5z"/>
  </svg>
  <svg height="20" viewBox="0 0 20 20" width="20" x="246" y="205">
    <path fill="#FFFFFF" d="M10,2.9c3,0,5,0,6,0.1c1.4,0.1,2.3,0.4,2.9,0.8c0.5,0.4,0.8,1.1,1,2C19.9,6.5,20,7.8,20,9.7V10  c0,2,0,3.3-0.1,3.9c-0.1,1-0.4,1.7-0.9,2.1c-0.5,0.5-1.4,0.8-2.7,0.9c-1,0.1-2.9,0.2-5.8,0.2H10c-3,0-5,0-6-0.1  c-1.4-0.1-2.3-0.4-2.9-0.8c-0.5-0.4-0.8-1.1-1-2C0.1,13.5,0,12.2,0,10.3V10c0-2,0-3.3,0.1-3.9c0.1-1,0.4-1.7,0.9-2.1  c0.5-0.5,1.4-0.8,2.7-0.9c1-0.1,2.9-0.2,5.8-0.2C9.6,2.9,10,2.9,10,2.9z M7.5,13.7l6.2-3.7L7.5,6.2V13.7L7.5,13.7z"/>
  </svg>
  <svg height="20" viewBox="0 0 20 20" width="20" x="5" y="240">
    <g>
      <path d="M16.2,12.8v2.7c0,1.4-1.1,2.5-2.5,2.5H2.5C1.1,18,0,16.9,0,15.5v-10C0,4.1,1.1,3,2.5,3h7v1C8.1,4.3,6.8,4.8,5.8,5.5H2.5   v9.9h11.2v-1L16.2,12.8z M19.9,8c0,0.1-0.1,0.3-0.2,0.3l-7.9,5.4c-0.1,0-0.1,0.1-0.2,0.1c-0.1,0-0.1,0-0.2,0   c-0.1-0.1-0.2-0.2-0.2-0.4v-2.9c-5,0.1-6.2,1.8-6.2,1.8c-0.1,0.1-0.2,0.2-0.3,0.2H4.5c-0.2,0-0.3-0.2-0.3-0.4C4.2,12,4,9.5,5.9,7.6   c1.2-1.3,3-2,5.4-2.1V2.6c0-0.2,0.1-0.3,0.2-0.4c0.1-0.1,0.3-0.1,0.4,0l7.9,5.4C19.9,7.7,19.9,7.9,19.9,8z"/>
    </g>
    <g display="none">
      <path display="inline" d="M9.2,18.3c-2.1,2.1-5.5,2.1-7.6,0s-2.1-5.5,0-7.6l2.8-2.8C4.4,9,4.5,10,4.9,11l-1.5,1.5   c-1.1,1.1-1.1,2.9,0,4.1s2.9,1.1,4.1,0l3.1-3.1c1.1-1.1,1.1-2.9,0-4.1c-0.5-0.5-0.5-1.3,0-1.8s1.3-0.5,1.8,0c2.1,2.1,2.1,5.5,0,7.6   L9.2,18.3z M15.5,12.1c0.1-1.1,0-2.1-0.4-3.1l1.5-1.5c1.1-1.1,1.1-2.9,0-4.1c-1.1-1.1-2.9-1.1-4.1,0L9.4,6.5   c-1.1,1.1-1.1,2.9,0,4.1c0.5,0.5,0.5,1.3,0,1.7c-0.5,0.5-1.3,0.5-1.7,0c-2.1-2.1-2.1-5.5,0-7.6l3.1-3.1c2.1-2.1,5.5-2.1,7.6,0   s2.1,5.5,0,7.6L15.5,12.1z"/>
    </g>
  </svg>
  <svg height="20" viewBox="0 0 20 20" width="20" x="30" y="240">
    <g display="none">
      <path display="inline" d="M16.2,10.6v2.7c0,1.4-1.1,2.5-2.5,2.5H2.5c-1.4,0-2.5-1.1-2.5-2.5V3.3c0-1.4,1.1-2.5,2.5-2.5h7v1   C8.1,2.1,6.8,2.6,5.8,3.3H2.5v9.9h11.2v-1L16.2,10.6z M19.9,5.8c0,0.1-0.1,0.3-0.2,0.3l-7.9,5.4c-0.1,0-0.1,0.1-0.2,0.1   c-0.1,0-0.1,0-0.2,0c-0.1-0.1-0.2-0.2-0.2-0.4V8.3C6.2,8.4,5,10.1,5,10.1c-0.1,0.1-0.2,0.2-0.3,0.2H4.5c-0.2,0-0.3-0.2-0.3-0.4   c0-0.1-0.2-2.6,1.7-4.5c1.2-1.3,3-2,5.4-2.1V0.4c0-0.2,0.1-0.3,0.2-0.4c0.1-0.1,0.3-0.1,0.4,0l7.9,5.4C19.9,5.5,19.9,5.7,19.9,5.8z   "/>
    </g>
    <g>
      <path d="M9.2,18.3c-2.1,2.1-5.5,2.1-7.6,0c-2.1-2.1-2.1-5.5,0-7.6l2.8-2.8C4.4,9,4.5,10,4.9,11l-1.5,1.5c-1.1,1.1-1.1,2.9,0,4.1   s2.9,1.1,4.1,0l3.1-3.1c1.1-1.1,1.1-2.9,0-4.1c-0.5-0.5-0.5-1.3,0-1.8c0.5-0.5,1.3-0.5,1.8,0c2.1,2.1,2.1,5.5,0,7.6L9.2,18.3z    M15.5,12.1c0.1-1.1,0-2.1-0.4-3.1l1.5-1.5c1.1-1.1,1.1-2.9,0-4.1c-1.1-1.1-2.9-1.1-4.1,0L9.4,6.5c-1.1,1.1-1.1,2.9,0,4.1   c0.5,0.5,0.5,1.3,0,1.7c-0.5,0.5-1.3,0.5-1.7,0c-2.1-2.1-2.1-5.5,0-7.6l3.1-3.1c2.1-2.1,5.5-2.1,7.6,0c2.1,2.1,2.1,5.5,0,7.6   L15.5,12.1z"/>
    </g>
  </svg>
  <svg height="20" viewBox="0 0 20 20" width="20" x="55" y="240">
    <g>
      <circle cx="2.7" cy="2.7" r="2.3"/>
      <rect x="0.7" y="6.8" width="4" height="12.8"/>
      <path d="M14.8,6.5c-1.9,0-3.2,1.1-3.8,2.1H11V6.8H7.2v12.8h4v-6.3c0-1.7,0.3-3.3,2.4-3.3c2,0,2.1,1.9,2.1,3.4v6.2h4v-7   C19.6,9.1,18.8,6.5,14.8,6.5z"/>
    </g>
  </svg>
  <svg height="20" viewBox="0 0 20 20" width="20" x="80" y="240">
    <path d="M16.7 12.6V17H3.3v-4.4H.7v5.7c0 .7.6 1.3 1.3 1.3h16c.7 0 1.3-.6 1.3-1.3v-5.7h-2.6zM9.8 12.2L6.1 7.7s-.6-.5 0-.5h2.1v-.9V.7s-.1-.3.4-.3h2.9c.3 0 .3.3.3.3V7.1h1.9c.7 0 .2.6.2.6s-3.1 4.2-3.6 4.6c-.2.2-.5-.1-.5-.1z"/>
  </svg>
  <svg height="16" viewBox="0 0 20 16" width="20" x="221" y="133">
    <path fill="#FFFFFF" d="M18.4,2h-5.7l-0.9-1.3c-0.2-0.5-0.6-0.7-1-0.7H8.3c-0.5,0-0.9,0.3-1,0.7L6.4,2H4.5V1h-2v1H0.9  C0.3,2,0.5,2.7,0.5,3.3v11c0,0.6-0.2,1.7,0.4,1.7h17.5c0.6,0,1.1-1.1,1.1-1.7v-11C19.5,2.7,19,2,18.4,2z M9.6,13.1  c-2.4,0-4.3-1.9-4.3-4.3s1.9-4.3,4.3-4.3s4.3,1.9,4.3,4.3S12,13.1,9.6,13.1z M16.5,6.6c-0.8,0-1.4-0.6-1.4-1.4s0.7-1.5,1.5-1.5  c0.8,0,1.5,0.7,1.5,1.5S17.4,6.6,16.5,6.6z"/>
  </svg>
  <svg height="16" viewBox="0 0 20 16" width="20" x="152" y="159">
    <path fill="#FFFFFF" d="M19.6,0h-6.9c-1.3,0-1.5,0.5-1.5,1.8V1.7C11.2,0.4,9.3,0,8,0H1v12.7V13l2.3,1.9H8c0,0,0.6,0.9,1.1,0.9h2.3  c0.7,0,1.1-0.9,1.1-0.9h4.7l2.3-1.9v-0.3L19.6,0L19.6,0z M1.9,0.9h6l0,0c0.7,0,1.4,0.1,1.4,0.7v10.4H1.9V0.9z M18.7,12.1h-6.5V1.8  c0-0.7-0.1-0.8,0.6-0.8h6V12.1z"/>
    <rect x="13.1" y="4.7" fill="#FFFFFF" width="4.7" height="0.9"/>
    <rect x="13.1" y="1.9" fill="#FFFFFF" width="4.7" height="0.9"/>
    <rect x="13.1" y="6.5" fill="#FFFFFF" width="4.7" height="1.9"/>
    <rect x="13.1" y="10.2" fill="#FFFFFF" width="4.7" height="0.9"/>
    <rect x="2.8" y="4.7" fill="#FFFFFF" width="4.7" height="0.9"/>
    <rect x="2.8" y="1.9" fill="#FFFFFF" width="4.7" height="0.9"/>
    <rect x="2.8" y="6.5" fill="#FFFFFF" width="4.7" height="1.9"/>
    <rect x="2.8" y="10.2" fill="#FFFFFF" width="4.7" height="0.9"/>
  </svg>
  <svg height="16" viewBox="0 0 20 16" width="20" x="177" y="159">
    <path fill="#000000" d="M19.6,0h-6.9c-1.3,0-1.5,0.5-1.5,1.8V1.7C11.2,0.4,9.3,0,8,0H1v12.7V13l2.3,1.9H8c0,0,0.6,0.9,1.1,0.9h2.3  c0.7,0,1.1-0.9,1.1-0.9h4.7l2.3-1.9v-0.3L19.6,0L19.6,0z M1.9,0.9h6l0,0c0.7,0,1.4,0.1,1.4,0.7v10.4H1.9V0.9z M18.7,12.1h-6.5V1.8  c0-0.7-0.1-0.8,0.6-0.8h6V12.1z"/>
    <rect x="13.1" y="4.7" fill="#000000" width="4.7" height="0.9"/>
    <rect x="13.1" y="1.9" fill="#000000" width="4.7" height="0.9"/>
    <rect x="13.1" y="6.5" fill="#000000" width="4.7" height="1.9"/>
    <rect x="13.1" y="10.2" fill="#000000" width="4.7" height="0.9"/>
    <rect x="2.8" y="4.7" fill="#000000" width="4.7" height="0.9"/>
    <rect x="2.8" y="1.9" fill="#000000" width="4.7" height="0.9"/>
    <rect x="2.8" y="6.5" fill="#000000" width="4.7" height="1.9"/>
    <rect x="2.8" y="10.2" fill="#000000" width="4.7" height="0.9"/>
  </svg>
  <svg height="17.2" viewBox="0 0 18 18" width="17.5" x="105" y="240">
    <path fill="#FFFFFF" d="M6.9,1.1c3.1,0,5.6,2.5,5.6,5.6s-2.5,5.6-5.6,5.6c-3.1,0-5.6-2.5-5.6-5.6S3.8,1.1,6.9,1.1 M6.9,0  c-3.7,0-6.7,3-6.7,6.7c0,3.7,3,6.7,6.7,6.7c3.7,0,6.7-3,6.7-6.7C13.5,2.9,10.6,0,6.9,0L6.9,0z"/>
    <rect x="12.4" y="11.2" transform="matrix(0.7071 -0.7071 0.7071 0.7071 -5.7168 14.1519)" fill="#FFFFFF" width="3.6" height="5.5"/>
  </svg>
  <svg height="17.2" viewBox="0 0 18 18" width="17.5" x="128" y="240">
    <path fill="#000000" d="M6.9,1.1c3.1,0,5.6,2.5,5.6,5.6s-2.5,5.6-5.6,5.6c-3.1,0-5.6-2.5-5.6-5.6S3.8,1.1,6.9,1.1 M6.9,0  c-3.7,0-6.7,3-6.7,6.7c0,3.7,3,6.7,6.7,6.7c3.7,0,6.7-3,6.7-6.7C13.5,2.9,10.6,0,6.9,0L6.9,0z"/>
    <rect x="12.4" y="11.2" transform="matrix(0.7071 -0.7071 0.7071 0.7071 -5.7168 14.1519)" fill="#000000" width="3.6" height="5.5"/>
  </svg>
  <svg height="16" viewBox="0 0 17 16" width="16.4" x="202" y="159">
    <path fill="#FFFFFF" d="M14.4,5.9l-3.3,3.3V6.7C11.1,6.2,10.5,6,10,6H0.8C0.3,6,0.1,6.2,0.1,6.7v8.1c0,0.6,0.1,1.1,0.7,1.1H10  c0.6,0,1.1-0.6,1.1-1.1v-2.5l3.3,3.3c0.7,0.5,1.7,0,1.7-0.8V6.7C16.1,5.9,15.1,5.4,14.4,5.9z"/>
    <g>
      <circle fill="#FFFFFF" cx="2.3" cy="2.4" r="2.3"/>
    </g>
    <g>
      <circle fill="#FFFFFF" cx="8.5" cy="2.4" r="2.3"/>
    </g>
  </svg>
  <svg height="16" viewBox="0 0 17 16" width="16.4" x="223" y="159">
    <path fill="#000000" d="M14.4,5.9l-3.3,3.3V6.7C11.1,6.2,10.5,6,10,6H0.8C0.3,6,0.1,6.2,0.1,6.7v8.1c0,0.6,0.1,1.1,0.7,1.1H10  c0.6,0,1.1-0.6,1.1-1.1v-2.5l3.3,3.3c0.7,0.5,1.7,0,1.7-0.8V6.7C16.1,5.9,15.1,5.4,14.4,5.9z"/>
    <circle fill="#000000" cx="2.3" cy="2.4" r="2.3"/>
    <circle fill="#000000" cx="8.5" cy="2.4" r="2.3"/>
  </svg>
  <svg height="16" viewBox="0 0 16 16" width="16" x="150" y="240">
    <path fill="#FFFFFF" d="M7,7.9L8.1,9l-4.9,4.9h4.5v1.6H0.5V8.3h1.6v4.5L7,7.9z M8.3,0.5h7.2v7.2h-1.6V3.2L9,8.1L7.9,7l4.9-4.9H8.3  L8.3,0.5L8.3,0.5z"/>
  </svg>
  <svg height="16" viewBox="0 0 16 16" width="16" x="171" y="240">
    <g>
      <polygon fill="#000000" points="3.3,10.7 4.3,15.7 6.4,15.7 5.4,10.7  "/>
      <path fill="#000000" d="M0,6.7c0,2.5,2,3,2,3h5v-6H2C2,3.7,0,4.1,0,6.7z"/>
      <path fill="#000000" d="M14.6,0.4L8,3.7v6l6.6,3.3c0.7,0.3,1.4-0.2,1.4-0.9V1.3C16,0.6,15.2,0.1,14.6,0.4z"/>
    </g>
  </svg>
  <svg height="16" viewBox="0 0 16 16" width="16" x="192" y="240">
    <g>
      <polygon fill="#FFFFFF" points="3.3,10.7 4.3,15.7 6.4,15.7 5.4,10.7  "/>
      <path fill="#FFFFFF" d="M0,6.7c0,2.5,2,3,2,3h5v-6H2C2,3.7,0,4.1,0,6.7z"/>
      <path fill="#FFFFFF" d="M14.6,0.4L8,3.7v6l6.6,3.3c0.7,0.3,1.4-0.2,1.4-0.9V1.3C16,0.6,15.2,0.1,14.6,0.4z"/>
    </g>
  </svg>
  <svg height="16" viewBox="0 0 16 16" width="16" x="213" y="240">
    <path fill="#ffffff" d="M11,15l-7-7l7-7l1.1,1.1L6.1,8l5.9,5.9L11,15z"/>
  </svg>
  <svg height="16" viewBox="0 0 16 16" width="16" x="234" y="240">
    <path fill="#010101" d="M11,15l-7-7l7-7l1.1,1.1L6.1,8l5.9,5.9L11,15z"/>
  </svg>
  <svg height="16" viewBox="0 0 16 16" width="16" x="271" y="5">
    <rect id="XMLID_4_" x="6.8" y="1.2" fill="#FFFFFF" width="3" height="10"/>
    <rect id="XMLID_1_" x="7" y="12" fill="#FFFFFF" width="3" height="3"/>
  </svg>
  <svg height="16" viewBox="0 0 16 16" width="16" x="271" y="26">
    <g id="XMLID_5_">
      <polygon id="XMLID_3_" fill="#010101" points="0,15.3 8,0.5 16,15.3  "/>
      <rect id="XMLID_2_" x="6.9" y="5.1" fill="#FFFFFF" width="2.3" height="5.7"/>
      <rect id="XMLID_1_" x="6.9" y="11.9" fill="#FFFFFF" width="2.3" height="2.3"/>
    </g>
  </svg>
  <svg height="16" viewBox="0 0 16 16" width="16" x="271" y="47">
    <path fill="#DF0202" d="M10.1,8l3.7-3.7c0.2-0.2,0.2-0.5,0-0.7l-1.4-1.4C12.3,2,12,2,11.7,2.2L8,5.9L4.3,2.2C4.1,2,3.8,2,3.5,2.2  L2.2,3.5C2,3.7,2,4,2.2,4.3L5.9,8l-3.7,3.7c-0.2,0.2-0.2,0.5,0,0.7l1.5,1.5c0.2,0.2,0.5,0.2,0.7,0L8,10.1l3.7,3.7  c0.2,0.2,0.5,0.2,0.7,0l1.5-1.5c0.2-0.2,0.2-0.5,0-0.7L10.1,8z"/>
  </svg>
  <svg height="16" viewBox="0 0 16 16" width="16" x="271" y="68">
    <g id="XMLID_5_">
      <polygon id="XMLID_3_" fill="#FFFFFF" points="0,15.3 8,0.5 16,15.3  "/>
      <rect id="XMLID_2_" x="6.9" y="5.1" fill="#000000" width="2.3" height="5.7"/>
      <rect id="XMLID_1_" x="6.9" y="11.9" fill="#000000" width="2.3" height="2.3"/>
    </g>
  </svg>
  <svg height="16" viewBox="0 0 16 16" width="16" x="271" y="89">
    <g>
      <path fill="#FFFFFF" d="M3,0.5v2h10v10.5c0,0.8,0.7,1.5,1.5,1.5s1.5-0.7,1.5-1.5V5.8V3.1V0.5H3z"/>
      <g>
        <path fill="#FFFFFF" d="M12,14.5c0-0.5,0-11,0-11H0v9c0,1.7,1.3,3,3,3c0,0,9.6,0,10,0C12.5,15.5,12,15,12,14.5z M6,12.5H1v-1h5    V12.5z M6,10.5H1v-1h5V10.5z M6,8.5H1v-1h5V8.5z M6,6.5H1v-1h5V6.5z M11,12.5H7v-7h4V12.5z"/>
      </g>
    </g>
  </svg>
  <svg height="16" viewBox="0 0 16 16" width="16" x="271" y="110">
    <g>
      <path fill="#000000" d="M3,0.5v2h10v10.5c0,0.8,0.7,1.5,1.5,1.5s1.5-0.7,1.5-1.5V5.8V3.1V0.5H3z"/>
      <g>
        <path fill="#000000" d="M12,14.5c0-0.5,0-11,0-11H0v9c0,1.7,1.3,3,3,3c0,0,9.6,0,10,0C12.5,15.5,12,15,12,14.5z M6,12.5H1v-1h5    V12.5z M6,10.5H1v-1h5V10.5z M6,8.5H1v-1h5V8.5z M6,6.5H1v-1h5V6.5z M11,12.5H7v-7h4V12.5z"/>
      </g>
    </g>
  </svg>
  <svg height="16" viewBox="0 0 16 16" width="16" x="271" y="131">
    <path fill="#ffffff" d="M15.1,5.1l-7,7l-7-7l1.1-1.1l5.9,6l5.9-5.9L15.1,5.1z"/>
  </svg>
  <svg height="16" viewBox="0 0 16 16" width="16" x="271" y="152">
    <g id="XMLID_6_">
      <path id="XMLID_4_" fill="#000" d="M6.9,8.5l-4.3,5.4H0.5l2.1-5.4l-2.1,0l0-6.4h6.4V8.5z"/>
      <path id="XMLID_2_" fill="#000" d="M15.5,8.5l-4.3,5.4H9.1l2.1-5.4l-2.1,0l0-6.4h6.4V8.5z"/>
    </g>
  </svg>
  <svg height="16" viewBox="0 0 16 16" width="16" x="271" y="173">
    <g id="XMLID_6_">
      <path id="XMLID_4_" fill="#FFF" d="M6.9,8.5l-4.3,5.4H0.5l2.1-5.4l-2.1,0l0-6.4h6.4V8.5z"/>
      <path id="XMLID_2_" fill="#FFF" d="M15.5,8.5l-4.3,5.4H9.1l2.1-5.4l-2.1,0l0-6.4h6.4V8.5z"/>
    </g>
  </svg>
  <svg height="16" viewBox="0 0 16 16" width="16" x="271" y="194">
    <path fill="#ffffff" d="M1.1,11l7-7l7,7L14,12.1l-5.9-6L2.2,12L1.1,11z"/>
  </svg>
  <svg height="16" viewBox="0 0 16 16" width="16" x="271" y="215">
    <path fill="#010101" d="M15.1,5.1l-7,7l-7-7l1.1-1.1l5.9,6l5.9-5.9L15.1,5.1z"/>
  </svg>
  <svg height="16" viewBox="0 0 16 16" width="16" x="271" y="236">
    <path fill="#FFFFFF" d="M13.3,3.8L9.1,8l4.2,4.2l-1.1,1.1L8,9.1l-4.2,4.2l-1.1-1.1L6.9,8L2.7,3.8l1.1-1.1L8,6.9l4.2-4.2L13.3,3.8z"/>
  </svg>
  <svg height="16" viewBox="0 0 16 16" width="16" x="5" y="265">
    <g>
      <polygon fill="#FFFFFF" points="15,4.6 16,4.1 8,0.1 0,4.1 8,8.1 14,5.1 14,13.5 13.4,15.9 15.6,15.9 15,13.5  "/>
      <path fill="#FFFFFF" d="M3,6.6v4c0,0,1.4,2.5,5,2.5s5-2.5,5-2.5V7.1L8,9.6L3,6.6z"/>
    </g>
  </svg>
  <svg height="16" viewBox="0 0 16 16" width="16" x="26" y="265">
    <g>
      <path fill="#FFFFFF" d="M12,16H4.5l-1-1H12c0.8,0,1.5-0.6,1.5-1.5v-12l1,0.5v11.5C14.5,14.9,13.4,16,12,16z"/>
      <g>
        <path fill="#FFFFFF" d="M1.5,0v12c0,1.1,0.9,2,2,2h7c1.1,0,2-0.9,2-2V0H1.5z M8.5,1h1v1h-1V1z M6.5,1h1v1h-1V1z M4.5,1h1v1h-1V1z     M2.5,1h1v1h-1V1z M10.5,11h-7v-1h7V11z M10.5,9h-7V8h7V9z M10.5,7h-7V6h7V7z M10.5,5h-7V4h7V5z M11.5,2h-1V1h1V2z"/>
      </g>
    </g>
  </svg>
  <svg height="16" viewBox="0 0 16 16" width="16" x="47" y="265">
    <g>
      <path fill="#000000" d="M12,16H4.5l-1-1H12c0.8,0,1.5-0.6,1.5-1.5v-12l1,0.5v11.5C14.5,14.9,13.4,16,12,16z"/>
      <g>
        <path fill="#000000" d="M1.5,0v12c0,1.1,0.9,2,2,2h7c1.1,0,2-0.9,2-2V0H1.5z M8.5,1h1v1h-1V1z M6.5,1h1v1h-1V1z M4.5,1h1v1h-1V1z     M2.5,1h1v1h-1V1z M10.5,11h-7v-1h7V11z M10.5,9h-7V8h7V9z M10.5,7h-7V6h7V7z M10.5,5h-7V4h7V5z M11.5,2h-1V1h1V2z"/>
      </g>
    </g>
  </svg>
  <svg height="16" viewBox="0 0 16 16" width="16" x="68" y="265">
    <path fill="#010101" d="M8,0.5c1,0,2,0.2,2.9,0.6s1.7,0.9,2.4,1.6c0.7,0.7,1.2,1.5,1.6,2.4C15.3,6,15.5,7,15.5,8c0,1-0.2,2-0.6,2.9  c-0.4,0.9-0.9,1.7-1.6,2.4c-0.7,0.7-1.5,1.3-2.4,1.6C10,15.3,9,15.5,8,15.5c-1,0-2-0.2-2.9-0.6c-0.9-0.4-1.7-0.9-2.4-1.6  c-0.7-0.7-1.2-1.5-1.6-2.4S0.5,9,0.5,8c0-1,0.2-2,0.6-2.9C1.4,4.2,2,3.4,2.7,2.7s1.5-1.3,2.4-1.6C6,0.7,7,0.5,8,0.5z M12.3,12.3  c0.6-0.6,1-1.2,1.3-2C13.9,9.6,14,8.8,14,8c0-1.1-0.3-2.1-0.8-3c-0.5-0.9-1.3-1.7-2.2-2.2S9.1,2,8,2C7.2,2,6.4,2.1,5.7,2.4  C5,2.7,4.3,3.2,3.7,3.7s-1,1.2-1.3,2S2,7.2,2,8c0,1.1,0.3,2.1,0.8,3c0.5,0.9,1.3,1.7,2.2,2.2C5.9,13.8,6.9,14,8,14  c0.8,0,1.6-0.2,2.3-0.5C11.1,13.3,11.7,12.8,12.3,12.3L12.3,12.3z M7.2,5.7V4.2h1.5v1.5H7.2z M7.2,11.8V6.6h1.5v5.2H7.2z"/>
  </svg>
  <svg height="16" viewBox="0 0 16 16" width="16" x="89" y="265">
    <path fill="#ffffff" d="M5.1,15l-1.1-1.1L9.8,8L3.9,2.1L5.1,1l7,7L5.1,15z"/>
  </svg>
  <svg height="16" viewBox="0 0 16 16" width="16" x="110" y="265">
    <path fill="#010101" d="M5.1,15l-1.1-1.1L9.8,8L3.9,2.1L5.1,1l7,7L5.1,15z"/>
  </svg>
  <svg height="16" viewBox="0 0 16 16" width="16" x="131" y="265">
    <ellipse fill="#FFFFFF" cx="2.5" cy="13.6" rx="2.1" ry="2.1"/>
    <path fill="#FFFFFF" d="M10.5,15.7H7.5c0-4-3.2-7.2-7.1-7.2l0,0v-3C6,5.5,10.5,10.1,10.5,15.7z"/>
    <path fill="#FFFFFF" d="M12.6,15.7c0-6.8-5.5-12.3-12.2-12.3V0.3c8.4,0,15.2,6.9,15.2,15.4H12.6z"/>
  </svg>
  <svg height="16" viewBox="0 0 16 16" width="16" x="152" y="265">
    <ellipse fill="#000000" cx="2.5" cy="13.6" rx="2.1" ry="2.1"/>
    <path fill="#000000" d="M10.5,15.7H7.5c0-4-3.2-7.2-7.1-7.2l0,0v-3C6,5.5,10.5,10.1,10.5,15.7z"/>
    <path fill="#000000" d="M12.6,15.7c0-6.8-5.5-12.3-12.2-12.3V0.3c8.4,0,15.2,6.9,15.2,15.4H12.6z"/>
  </svg>
  <svg height="16" viewBox="0 0 16 16" width="16" x="173" y="265">
    <g>
      <polygon fill="#000000" points="15,4.6 16,4.1 8,0.1 0,4.1 8,8.1 14,5.1 14,13.5 13.4,15.9 15.6,15.9 15,13.5  "/>
      <path fill="#000000" d="M3,6.6v4c0,0,1.4,2.5,5,2.5s5-2.5,5-2.5V7.1L8,9.6L3,6.6z"/>
    </g>
  </svg>
  <svg height="16" viewBox="0 0 16 16" width="16" x="194" y="265">
    <path fill="#010101" d="M13.3,3.8L9.1,8l4.2,4.2l-1.1,1.1L8,9.1l-4.2,4.2l-1.1-1.1L6.9,8L2.7,3.8l1.1-1.1L8,6.9l4.2-4.2L13.3,3.8z"/>
  </svg>
  <svg height="16" viewBox="0 0 16 16" width="16" x="215" y="265">
    <path fill="#010101" d="M1.1,11l7-7l7,7L14,12.1l-5.9-6L2.2,12L1.1,11z"/>
  </svg>
  <svg height="16" viewBox="0 0 16 16" width="16" x="236" y="265">
    <g id="XMLID_2_">
      <circle id="XMLID_8_" fill="#FFFFFF" cx="8" cy="8" r="1"/>
      <path id="XMLID_3_" fill="#FFFFFF" d="M15.4,7.7c-1.5-2.2-4.3-3.6-7.2-3.6c0,0-0.1,0-0.1,0s-0.1,0-0.1,0c-3,0-5.7,1.4-7.2,3.6   L0.5,8l0.2,0.3c1.5,2.2,4.3,3.6,7.2,3.6c0,0,0.1,0,0.1,0s0.1,0,0.1,0c3,0,5.7-1.4,7.2-3.6L15.5,8L15.4,7.7z M8,10.9   c-1.7,0-3-1.3-3-2.9s1.4-2.9,3-2.9s3,1.3,3,2.9S9.7,10.9,8,10.9z M1.6,8c0.8-1,1.9-1.9,3.2-2.4C4.3,6.3,4,7.1,4,8s0.3,1.7,0.8,2.4   C3.5,9.9,2.4,9,1.6,8z M11.2,10.4C11.7,9.7,12,8.9,12,8s-0.3-1.7-0.8-2.4C12.5,6.1,13.6,7,14.4,8C13.6,9,12.5,9.9,11.2,10.4z"/>
    </g>
  </svg>
  <svg height="16" viewBox="0 0 16 16" width="16" x="257" y="265">
    <g id="XMLID_2_">
      <circle id="XMLID_8_" fill="#000000" cx="8" cy="8" r="1"/>
      <path id="XMLID_3_" fill="#000000" d="M15.4,7.7c-1.5-2.2-4.3-3.6-7.2-3.6c0,0-0.1,0-0.1,0s-0.1,0-0.1,0c-3,0-5.7,1.4-7.2,3.6   L0.5,8l0.2,0.3c1.5,2.2,4.3,3.6,7.2,3.6c0,0,0.1,0,0.1,0s0.1,0,0.1,0c3,0,5.7-1.4,7.2-3.6L15.5,8L15.4,7.7z M8,10.9   c-1.7,0-3-1.3-3-2.9s1.4-2.9,3-2.9s3,1.3,3,2.9S9.7,10.9,8,10.9z M1.6,8c0.8-1,1.9-1.9,3.2-2.4C4.3,6.3,4,7.1,4,8s0.3,1.7,0.8,2.4   C3.5,9.9,2.4,9,1.6,8z M11.2,10.4C11.7,9.7,12,8.9,12,8s-0.3-1.7-0.8-2.4C12.5,6.1,13.6,7,14.4,8C13.6,9,12.5,9.9,11.2,10.4z"/>
    </g>
  </svg>
  <svg height="16" viewBox="0 0 16 16" width="16" x="292" y="5">
    <rect id="XMLID_4_" x="6.8" y="1.2" fill="#000000" width="3" height="10"/>
    <rect id="XMLID_1_" x="7" y="12" fill="#000000" width="3" height="3"/>
  </svg>
  <svg height="16" viewBox="0 0 16 16" width="16" x="292" y="26">
    <path fill="#2BBD03" d="M13.9,4.5l-1.2-1.2c-0.2-0.2-0.5-0.2-0.6,0l-6,6L4,7.2C3.8,7,3.5,7,3.3,7.2L2.1,8.4C2,8.6,2,8.9,2.1,9.1  l3.5,3.5c0.2,0.2,0.3,0.3,0.5,0.3s0.3-0.2,0.5-0.3l7.3-7.3C14,5,14,4.7,13.9,4.5z"/>
  </svg>
  <svg height="16" viewBox="0 0 13 16" width="12.1" x="292" y="47">
    <polygon fill="#FFFFFF" points="3.2,0 0.1,3 3.2,3"/>
    <path fill="#FFFFFF" d="M4.1,0v4h-4v12h12V0H4.1z M10.1,13h-8v-1h8V13z M10.1,11h-8v-1h8V11z M10.1,9h-8V8h8V9z M10.1,7h-8V6h8V7z"/>
  </svg>
  <svg height="14" viewBox="0 0 14 14" width="14" x="292" y="68">
    <g>
      <polygon fill="#000000" points="4.6,0.2 1.9,2.8 4.6,2.8"/>
      <path class="st0" d="M5.3,0.2v3.4H1.9v10.1h10.1V0.2H5.3z M10.4,11.2H3.6v-0.8h6.8V11.2z M10.4,9.5H3.6V8.7h6.8V9.5z M10.4,7.8H3.6   V7h6.8V7.8z M10.4,6.2H3.6V5.3h6.8V6.2z"/>
    </g>
  </svg>
  <svg height="14" viewBox="0 0 14 14" width="14" x="292" y="87">
    <g>
      <path fill="#FFFFFF" d="M13,3H7.7l0.4,1H13v7.1l1-0.9c0,0,0-5.7,0-6.7S12.6,3,12.6,3"/>
      <path fill="#FFFFFF" d="M11.1,5H7.3L6.2,3c0,0-0.4-1-1.1-1H4.2H3.1H2.4C1.7,2,1.2,2.8,1.2,2.8L0,4.5v7c0,1,1.1,1.5,1.1,1.5h10   c0,0,0.9-0.5,0.9-1.5v-6C12,4.5,11.1,5,11.1,5z"/>
    </g>
  </svg>
  <svg height="14" viewBox="0 0 14 14" width="14" x="292" y="106">
    <g id="XMLID_2_">
      <path id="XMLID_3_" fill="#000000" d="M10.1,3.7c0.9-0.2,1.6-0.4,2.4-0.7C11.6,1.9,10.4,1,9.1,0.6C9.5,1.6,9.8,2.6,10.1,3.7z"/>
      <path id="XMLID_9_" fill="#000000" d="M4,3.7c0.3-1.1,0.6-2.2,1-3.3C3.6,0.9,2.4,1.8,1.5,3C2.3,3.3,3.1,3.6,4,3.7z"/>
      <path id="XMLID_10_" fill="#000000" d="M4.9,3.9C5.6,4,6.3,4.1,7,4.1S8.4,4,9.1,3.9C8.9,2.6,8.5,1.4,7.9,0.2C7.6,0.2,7.3,0.1,7,0.1   s-0.5,0-0.8,0.1C5.6,1.4,5.2,2.6,4.9,3.9z"/>
      <path id="XMLID_11_" fill="#000000" d="M9.3,9.1C9.4,8.5,9.5,7.7,9.5,7S9.4,5.5,9.3,4.9C8.5,4.9,7.8,5,7,5S5.5,4.9,4.8,4.9   C4.7,5.5,4.6,6.2,4.6,7c0,0.7,0.1,1.5,0.2,2.1C5.5,9.1,6.2,9,7,9S8.5,9.1,9.3,9.1z"/>
      <path id="XMLID_12_" fill="#000000" d="M13,10.1c0.5-0.9,0.8-2,0.8-3.1S13.5,4.8,13,3.8c-0.9,0.3-1.8,0.7-2.7,0.9   c0.1,0.8,0.2,1.5,0.2,2.3s-0.1,1.5-0.2,2.3C11.2,9.5,12.2,9.7,13,10.1z"/>
      <path id="XMLID_13_" fill="#000000" d="M9.1,10.1C8.5,10,7.8,9.9,7.1,9.9S5.7,10,5,10.1c0.3,1.3,0.7,2.5,1.3,3.7   c0.3,0,0.5,0.1,0.8,0.1s0.6,0,0.9-0.1C8.5,12.6,8.9,11.4,9.1,10.1z"/>
      <path id="XMLID_14_" fill="#000000" d="M10.1,10.3c-0.3,1.1-0.6,2.2-1,3.3c1.4-0.4,2.6-1.4,3.4-2.5C11.7,10.7,10.9,10.4,10.1,10.3z"/>
      <path id="XMLID_15_" fill="#000000" d="M3.8,9.3C3.7,8.5,3.7,7.8,3.7,7s0.1-1.5,0.2-2.3C2.9,4.5,1.9,4.2,1,3.8C0.5,4.8,0.2,5.9,0.2,7   S0.5,9.2,1,10.2C1.9,9.7,2.9,9.5,3.8,9.3z"/>
      <path id="XMLID_16_" fill="#000000" d="M4,10.3c-0.9,0.2-1.6,0.4-2.5,0.8c0.9,1.2,2.1,2.1,3.5,2.5C4.5,12.5,4.2,11.4,4,10.3z"/>
    </g>
  </svg>
  <svg height="14" viewBox="0 0 14 14" width="14" x="292" y="125">
    <g>
      <rect fill="#000000" id="XMLID_2_" x="0.8" y="1.4" width="1.9" height="12.4"/>
      <polygon fill="#000000" id="XMLID_1_" points="3.7,1.2 13.2,4.5 3.7,7.9  "/>
      <circle fill="#000000" id="XMLID_4_" cx="1.8" cy="1.2" r="1"/>
    </g>
  </svg>
  <svg height="14" viewBox="0 0 14 14" width="14" x="292" y="144">
    <path fill="#000000" d="M7,0.2c-2.8,0-5.1,2.3-5.1,5.1C1.9,7,3,8.4,4.3,10l2.9,3.9l3-4.2c1.2-1.5,2-2.6,2-4.2C12.2,2.5,9.8,0.2,7,0.2z   M7,7.5c-1.2,0-2.2-0.9-2.2-2.2S5.8,3.1,7,3.1S9.2,4,9.2,5.3S8.2,7.5,7,7.5z"/>
  </svg>
  <svg height="14" viewBox="0 0 14 14" width="14" x="292" y="163">
    <path fill="#FFFFFF" d="M7,0.2c-2.8,0-5.1,2.3-5.1,5.1C1.9,7,3,8.4,4.3,10l2.9,3.9l3-4.2c1.2-1.5,2-2.6,2-4.2C12.2,2.5,9.8,0.2,7,0.2z   M7,7.5c-1.2,0-2.2-0.9-2.2-2.2S5.8,3.1,7,3.1S9.2,4,9.2,5.3S8.2,7.5,7,7.5z"/>
  </svg>
  <svg height="14" viewBox="0 0 14 14" width="14" x="292" y="182">
    <g>
      <path fill="#000000" d="M13,3H7.7l0.4,1H13v7.1l1-0.9c0,0,0-5.7,0-6.7S12.6,3,12.6,3"/>
      <path fill="#000000" d="M11.1,5H7.3L6.2,3c0,0-0.4-1-1.1-1H4.2H3.1H2.4C1.7,2,1.2,2.8,1.2,2.8L0,4.5v7c0,1,1.1,1.5,1.1,1.5h10   c0,0,0.9-0.5,0.9-1.5v-6C12,4.5,11.1,5,11.1,5z"/>
    </g>
  </svg>
  <svg height="7" viewBox="0 0 13 7" width="13" x="292" y="201">
    <polygon points="3.5,1 3.9,1.4 2.2,3.2 12,3.2 12,3.8 2.2,3.8 3.9,5.6 3.5,6 1,3.5 "/>
  </svg>
  <svg height="7" viewBox="0 0 13 7" width="13" x="292" y="213">
    <polygon points="9.5,1 9.1,1.4 10.8,3.2 1,3.2 1,3.8 10.8,3.8 9.1,5.6 9.5,6 12,3.5 "/>
  </svg>
  <svg height="7" viewBox="0 0 13 7" width="13" x="250" y="238">
    <polygon fill="#fff" points="3.5,1 3.9,1.4 2.2,3.2 12,3.2 12,3.8 2.2,3.8 3.9,5.6 3.5,6 1,3.5 "/>
  </svg>
  <svg height="7" viewBox="0 0 13 7" width="13" x="250" y="251">
    <polygon fill="#fff" points="9.5,1 9.1,1.4 10.8,3.2 1,3.2 1,3.8 10.8,3.8 9.1,5.6 9.5,6 12,3.5 "/>
  </svg>
  <svg viewBox="0 0 100 100" height="22" width="22" x="283" y="230">
    <path style="text-indent:0;text-transform:none;block-progression:tb" d="M10 13a2 2 0 1 0 0 4h10.375l10.531 49.75c.256 1.23 1.077 2.263 2.094 2.25h50c1.057.015 2.031-.943 2.031-2s-.974-2.015-2.031-2H34.625L23.969 14.563C23.77 13.679 22.906 12.993 22 13zm20 12l6 30h49l7-30zm13 48a7 7 0 1 0 0 14 7 7 0 0 0 0-14zm30 0a7 7 0 1 0 0 14 7 7 0 0 0 0-14z" overflow="visible" color="#000"/>
  </svg>
  <svg viewBox="0 0 100 100" height="22" width="22" x="283" y="260">
    <path style="text-indent:0;text-transform:none;block-progression:tb" d="M10 13a2 2 0 1 0 0 4h10.375l10.531 49.75c.256 1.23 1.077 2.263 2.094 2.25h50c1.057.015 2.031-.943 2.031-2s-.974-2.015-2.031-2H34.625L23.969 14.563C23.77 13.679 22.906 12.993 22 13zm20 12l6 30h49l7-30zm13 48a7 7 0 1 0 0 14 7 7 0 0 0 0-14zm30 0a7 7 0 1 0 0 14 7 7 0 0 0 0-14z" overflow="visible" fill="#fff"/>
  </svg>
  <svg height="16" viewBox="0 0 16 16" width="16" x="0" y="285">
    <path fill="#000" d="M10.1,8l3.7-3.7c0.2-0.2,0.2-0.5,0-0.7l-1.4-1.4C12.3,2,12,2,11.7,2.2L8,5.9L4.3,2.2C4.1,2,3.8,2,3.5,2.2  L2.2,3.5C2,3.7,2,4,2.2,4.3L5.9,8l-3.7,3.7c-0.2,0.2-0.2,0.5,0,0.7l1.5,1.5c0.2,0.2,0.5,0.2,0.7,0L8,10.1l3.7,3.7  c0.2,0.2,0.5,0.2,0.7,0l1.5-1.5c0.2-0.2,0.2-0.5,0-0.7L10.1,8z"/>
  </svg>
  <svg height="16" viewBox="0 0 16 16" width="16" x="20" y="285">
    <path fill="#fff" d="M10.1,8l3.7-3.7c0.2-0.2,0.2-0.5,0-0.7l-1.4-1.4C12.3,2,12,2,11.7,2.2L8,5.9L4.3,2.2C4.1,2,3.8,2,3.5,2.2  L2.2,3.5C2,3.7,2,4,2.2,4.3L5.9,8l-3.7,3.7c-0.2,0.2-0.2,0.5,0,0.7l1.5,1.5c0.2,0.2,0.5,0.2,0.7,0L8,10.1l3.7,3.7  c0.2,0.2,0.5,0.2,0.7,0l1.5-1.5c0.2-0.2,0.2-0.5,0-0.7L10.1,8z"/>
  </svg>
  <svg viewBox="0 0 12 16" width="12" height="16" x="40" y="285">
    <rect y="3" width="12" height="2"></rect>
    <rect y="7" width="12" height="2"></rect>
    <rect y="11" width="12" height="2"></rect>
  </svg>
  <svg viewBox="0 0 12 16" width="12" height="16" x="60" y="285" fill="#fff">
    <rect y="3" width="12" height="2"></rect>
    <rect y="7" width="12" height="2"></rect>
    <rect y="11" width="12" height="2"></rect>
  </svg>
  <svg width="32" height="32" viewBox="0 0 32 32" fill="none" x="52" y="153">
    <path fill-rule="evenodd" clip-rule="evenodd" d="M5.78754 14.0196C5.83131 14.0344 5.87549 14.0448 5.91963 14.0512C5.96777 14.1644 6.02996 14.3107 6.10252 14.4818C6.27959 14.8994 6.51818 15.4643 6.76446 16.0535C7.2667 17.2552 7.77332 18.4939 7.88521 18.8485C8.02372 19.2868 8.17013 19.5848 8.32996 19.7883C8.4126 19.8935 8.50819 19.9853 8.62003 20.0549C8.67633 20.0899 8.7358 20.1186 8.79788 20.14C8.80062 20.141 8.80335 20.1419 8.80608 20.1428C9.1261 20.2636 9.41786 20.2133 9.60053 20.1518C9.69827 20.1188 9.77735 20.0791 9.8334 20.0469C9.86198 20.0304 9.88612 20.0151 9.90538 20.0021L9.90992 19.9991L12.7361 18.2366L16.0007 20.7394C16.0488 20.7763 16.1014 20.8073 16.157 20.8316C16.5492 21.0027 16.929 21.0624 17.2862 21.0136C17.6429 20.9649 17.926 20.8151 18.1368 20.6464C18.3432 20.4813 18.4832 20.2963 18.5703 20.1589C18.6148 20.0887 18.6482 20.0266 18.6718 19.9791C18.6836 19.9552 18.6931 19.9346 18.7005 19.9181L18.7099 19.8963L18.7135 19.8877L18.715 19.8841L18.7156 19.8824L18.7163 19.8808C18.7334 19.8379 18.7466 19.7935 18.7556 19.7482L21.7358 4.72274C21.7453 4.67469 21.7501 4.62581 21.7501 4.57682C21.7501 4.13681 21.5843 3.71841 21.1945 3.46452C20.8613 3.24752 20.4901 3.23818 20.2556 3.25598C20.0025 3.27519 19.7688 3.33766 19.612 3.38757C19.5304 3.41355 19.4619 3.43861 19.4126 3.45773C19.3878 3.46734 19.3675 3.47559 19.3523 3.48188L19.341 3.48666L2.62725 10.0432L2.62509 10.044C2.61444 10.0479 2.60076 10.053 2.58451 10.0593C2.55215 10.0719 2.50878 10.0896 2.45813 10.1126C2.35935 10.1574 2.22077 10.2273 2.07856 10.3247C1.85137 10.4803 1.32888 10.9064 1.41686 11.6097C1.48705 12.1708 1.87143 12.5154 2.10562 12.6811C2.23421 12.7721 2.35638 12.8371 2.44535 12.8795C2.48662 12.8991 2.57232 12.9339 2.6095 12.9491L2.61889 12.9529L5.78754 14.0196ZM19.9259 4.86786L19.9236 4.86888C19.9152 4.8725 19.9069 4.87596 19.8984 4.87928L3.1644 11.4438C3.15566 11.4472 3.14686 11.4505 3.138 11.4536L3.12869 11.4571C3.11798 11.4613 3.09996 11.4686 3.07734 11.4788C3.06451 11.4846 3.05112 11.491 3.03747 11.4978C3.05622 11.5084 3.07417 11.5175 3.09012 11.5251C3.10543 11.5324 3.11711 11.5374 3.1235 11.54L6.26613 12.598C6.32365 12.6174 6.37727 12.643 6.42649 12.674L16.8033 6.59948L16.813 6.59374C16.8205 6.58927 16.8305 6.58353 16.8424 6.5768C16.866 6.56345 16.8984 6.54568 16.937 6.52603C17.009 6.48938 17.1243 6.43497 17.2541 6.39485C17.3444 6.36692 17.6109 6.28823 17.899 6.38064C18.0768 6.43767 18.2609 6.56028 18.3807 6.76798C18.4401 6.87117 18.4718 6.97483 18.4872 7.06972C18.528 7.2192 18.5215 7.36681 18.4896 7.49424C18.4208 7.76875 18.228 7.98287 18.0525 8.14665C17.9021 8.28706 15.9567 10.1629 14.0376 12.0147C13.0805 12.9381 12.1333 13.8525 11.4252 14.5359L10.9602 14.9849L16.8321 19.4867C16.9668 19.5349 17.0464 19.5325 17.0832 19.5274C17.1271 19.5214 17.163 19.5045 17.1997 19.4752C17.2407 19.4424 17.2766 19.398 17.3034 19.3557L17.3045 19.354L20.195 4.78102C20.1521 4.79133 20.1087 4.80361 20.0669 4.81691C20.0196 4.83198 19.9805 4.84634 19.9547 4.85637C19.9418 4.86134 19.9326 4.86511 19.9276 4.86719L19.9259 4.86786ZM11.4646 17.2618L10.2931 16.3636L10.0093 18.1693L11.4646 17.2618ZM9.21846 14.5814L10.3834 13.4567C11.0915 12.7732 12.0389 11.8588 12.9961 10.9352L13.9686 9.997L7.44853 13.8138L7.48351 13.8963C7.66121 14.3154 7.90087 14.8827 8.14845 15.4751C8.33358 15.918 8.52717 16.3844 8.70349 16.8162L8.98653 15.0158C9.01381 14.8422 9.09861 14.692 9.21846 14.5814Z" fill="white"/>
  </svg>
</svg>
