<svg fill="#000000" xmlns:svg="http://www.w3.org/2000/svg" version="1.1" x="0px" y="0px" viewBox="0 0 100 100">
  <g transform="translate(0,-952.36218)">
    <path style="text-indent:0;text-transform:none;direction:ltr;block-progression:tb;baseline-shift:baseline;color:#000000;enable-background:accumulate;" d="m 9.9999999,965.36226 c -1.1046,0 -2,0.8954 -2,2 0,1.1046 0.8954,2 2,2 l 10.3750001,0 10.5312,49.74994 c 0.2555,1.2291 1.0765,2.2629 2.0938,2.25 l 50,0 c 1.0566,0.015 2.0312,-0.9433 2.0312,-2 0,-1.0567 -0.9746,-2.015 -2.0312,-2 l -48.375,0 -10.6562,-50.43744 c -0.1983,-0.884 -1.0629,-1.5702 -1.9688,-1.5625 z m 20.0000001,12 6,30.00004 49,0 7,-30.00004 z m 13,47.99994 c -3.8659,0 -7,3.134 -7,7 0,3.866 3.1341,7 7,7 3.866,0 7,-3.134 7,-7 0,-3.866 -3.134,-7 -7,-7 z m 30,0 c -3.8659,0 -7,3.134 -7,7 0,3.866 3.1341,7 7,7 3.866,0 7,-3.134 7,-7 0,-3.866 -3.134,-7 -7,-7 z" fill="#000000" fill-opacity="1" stroke="none" marker="none" visibility="visible" display="inline" overflow="visible"/>
  </g>
</svg>
